<svg xmlns="http://www.w3.org/2000/svg" width="42.504" height="32.863" viewBox="0 0 42.504 32.863">
  <g id="Back_Arrow" data-name="Back Arrow" transform="translate(0 -4.821)">
    <path id="Path" d="M14.755,32.267l-.2-.182L.778,18.311A2.658,2.658,0,0,1,.6,14.755l.182-.2L14.554.778a2.657,2.657,0,0,1,3.939,3.556l-.182.2L9.07,13.775H39.847a2.657,2.657,0,0,1,.257,5.3l-.257.013H9.07l9.241,9.24a2.656,2.656,0,0,1,.182,3.554l-.182.2a2.658,2.658,0,0,1-3.556.182Z" transform="translate(0 4.821)" fill="#044468"/>
  </g>
</svg>
