<svg xmlns="http://www.w3.org/2000/svg" width="37" height="42" viewBox="0 0 37 42">
  <g id="Bell" transform="translate(0)">
    <path id="Path" d="M34.353,32H2.649A2.6,2.6,0,0,1,.119,30.105a2.629,2.629,0,0,1,1.063-2.99l.079-.059a2.966,2.966,0,0,0,.312-.293l.26-.3A11.08,11.08,0,0,0,2.97,24.723c1.539-2.849,2.319-6.681,2.319-11.39l.013-.557a13.355,13.355,0,0,1,3.857-8.87,13.123,13.123,0,0,1,18.682,0,13.308,13.308,0,0,1,3.87,9.427c0,4.579.741,8.337,2.2,11.168a10.283,10.283,0,0,0,1.416,2.12l.026.029.1.11.209.211.138.126.257.2a2.642,2.642,0,0,1,.78,2.947A2.581,2.581,0,0,1,34.353,32ZM18.5,5.333A7.839,7.839,0,0,0,12.9,7.677a8.092,8.092,0,0,0-2.321,5.656A30.574,30.574,0,0,1,8.122,26.258l-.2.41H29.078l-.111-.226a29.645,29.645,0,0,1-2.532-12.262l-.008-.846A8.087,8.087,0,0,0,24.1,7.677,7.938,7.938,0,0,0,18.5,5.333Z" transform="translate(0 0)" fill="#044468"/>
    <path id="Path-2" data-name="Path" d="M11.32.88l.13-.113a2.7,2.7,0,0,1,3.771,0,2.6,2.6,0,0,1,0,3.712,8.415,8.415,0,0,1-3.3,1.913A12.681,12.681,0,0,1,8,7a12.681,12.681,0,0,1-3.921-.6,8.414,8.414,0,0,1-3.3-1.913,2.6,2.6,0,0,1,0-3.712A2.7,2.7,0,0,1,4.347.587l.2.18a3.241,3.241,0,0,0,1.216.649A7.29,7.29,0,0,0,8,1.75a7.29,7.29,0,0,0,2.234-.334A3.664,3.664,0,0,0,11.32.88Z" transform="translate(11 35)" fill="#044468"/>
  </g>
</svg>
