<svg id="Chat" xmlns="http://www.w3.org/2000/svg" width="43" height="43" viewBox="0 0 43 43">
  <path id="Path" d="M2.7,43A2.7,2.7,0,0,1,0,40.308V9.843A9.86,9.86,0,0,1,9.854,0H33.146A9.865,9.865,0,0,1,43,9.853V25.081a9.865,9.865,0,0,1-9.854,9.853H15.1a4.5,4.5,0,0,0-2.836,1.013L4.389,42.388A2.642,2.642,0,0,1,2.7,43ZM9.854,5.374A4.479,4.479,0,0,0,5.374,9.843V34.636l3.486-2.849a9.906,9.906,0,0,1,5.753-2.215l.485-.013H33.146a4.483,4.483,0,0,0,4.478-4.477V9.853a4.484,4.484,0,0,0-4.478-4.479Z" transform="translate(0 0)" fill="#044468"/>
</svg>
