<svg id="Cross" xmlns="http://www.w3.org/2000/svg" width="42.504" height="42.504" viewBox="0 0 42.504 42.504">
  <rect id="BG" width="42.504" height="42.504" fill="#044468" opacity="0"/>
  <path id="Path" d="M.778,25.825A2.658,2.658,0,0,1,.6,22.269l.182-.2L9.545,13.3.778,4.535A2.657,2.657,0,0,1,4.334.6l.2.182L13.3,9.545,22.068.778a2.657,2.657,0,0,1,3.939,3.556l-.182.2L17.058,13.3l8.766,8.766a2.657,2.657,0,0,1-3.556,3.939l-.2-.182L13.3,17.058,4.535,25.825a2.656,2.656,0,0,1-3.757,0Z" transform="translate(7.95 7.951)" fill="#044468"/>
</svg>
