<svg xmlns="http://www.w3.org/2000/svg" width="43" height="43" viewBox="0 0 43 43">
  <g id="Direction" transform="translate(0)">
    <path id="Path" d="M22.5,43h0a2.66,2.66,0,0,1-2.616-2.035L16.308,26.69,2.037,23.122a2.688,2.688,0,0,1-.725-4.915l.227-.121L39.153.269a2.655,2.655,0,0,1,3.434,1.007,2.622,2.622,0,0,1,.145,2.57L24.914,41.463A2.623,2.623,0,0,1,22.5,43ZM34.654,8.344h0L10.623,19.73l8.555,2.138a2.683,2.683,0,0,1,1.876,1.7l.077.258,2.138,8.552L34.654,8.344Z" transform="translate(0 0)" fill="#044468"/>
  </g>
</svg>
