<svg xmlns="http://www.w3.org/2000/svg" width="42.507" height="30.107" viewBox="0 0 42.507 30.107">
  <g id="Eye" transform="translate(0.001 -6.198)">
    <path id="Path" d="M5.661,23.151A30.173,30.173,0,0,1,.326,16.326a2.645,2.645,0,0,1,0-2.545A30.173,30.173,0,0,1,5.661,6.956C10.381,2.34,15.626,0,21.253,0S32.126,2.34,36.846,6.956a30.173,30.173,0,0,1,5.335,6.825,2.645,2.645,0,0,1,0,2.545,30.173,30.173,0,0,1-5.335,6.825c-4.72,4.616-9.965,6.956-15.593,6.956S10.381,27.767,5.661,23.151Zm3.714-12.4a28.123,28.123,0,0,0-3.3,3.892l-.1.145-.18.261.282.408a28.123,28.123,0,0,0,3.3,3.892c3.695,3.61,7.691,5.442,11.878,5.442s8.185-1.831,11.879-5.442a28.123,28.123,0,0,0,3.3-3.892l.1-.145.179-.263-.279-.406a28.123,28.123,0,0,0-3.3-3.892c-3.695-3.61-7.692-5.442-11.879-5.442S13.07,7.144,9.375,10.754Zm6.565,4.3a5.313,5.313,0,1,1,5.312,5.314A5.312,5.312,0,0,1,15.94,15.053Z" transform="translate(-0.001 6.199)" fill="#044468"/>
  </g>
</svg>
