<svg id="Grid" xmlns="http://www.w3.org/2000/svg" width="42.503" height="42.503" viewBox="0 0 42.503 42.503">
  <path id="Path" d="M29.221,42.5a6.206,6.206,0,0,1-6.2-6.2V29.221a6.207,6.207,0,0,1,6.2-6.2H36.3a6.206,6.206,0,0,1,6.2,6.2V36.3a6.2,6.2,0,0,1-6.2,6.2Zm-.886-13.282V36.3a.887.887,0,0,0,.886.886H36.3a.886.886,0,0,0,.886-.886V29.221a.887.887,0,0,0-.886-.886H29.221A.888.888,0,0,0,28.335,29.221ZM6.2,42.5A6.206,6.206,0,0,1,0,36.3V29.221a6.207,6.207,0,0,1,6.2-6.2h7.083a6.207,6.207,0,0,1,6.2,6.2V36.3a6.206,6.206,0,0,1-6.2,6.2ZM5.312,29.221V36.3a.886.886,0,0,0,.886.886h7.083a.886.886,0,0,0,.886-.886V29.221a.887.887,0,0,0-.886-.886H6.2A.887.887,0,0,0,5.312,29.221Zm23.909-9.74a6.207,6.207,0,0,1-6.2-6.2V6.2a6.207,6.207,0,0,1,6.2-6.2H36.3a6.206,6.206,0,0,1,6.2,6.2v7.083a6.206,6.206,0,0,1-6.2,6.2ZM28.335,6.2v7.083a.887.887,0,0,0,.886.886H36.3a.886.886,0,0,0,.886-.886V6.2a.886.886,0,0,0-.886-.886H29.221A.887.887,0,0,0,28.335,6.2ZM6.2,19.481a6.207,6.207,0,0,1-6.2-6.2V6.2A6.207,6.207,0,0,1,6.2,0h7.083a6.207,6.207,0,0,1,6.2,6.2v7.083a6.207,6.207,0,0,1-6.2,6.2ZM5.312,6.2v7.083a.886.886,0,0,0,.886.886h7.083a.886.886,0,0,0,.886-.886V6.2a.886.886,0,0,0-.886-.886H6.2A.886.886,0,0,0,5.312,6.2Z" fill="#044468"/>
</svg>
