<svg id="Maximize" xmlns="http://www.w3.org/2000/svg" width="43" height="43" viewBox="0 0 43 43">
  <path id="Path" d="M27.77,43a2.688,2.688,0,0,1-.258-5.363l.258-.013h7.167A2.688,2.688,0,0,0,37.613,35.2l.011-.258V27.77a2.688,2.688,0,0,1,5.363-.258L43,27.77v7.167a8.063,8.063,0,0,1-7.683,8.053l-.379.01ZM8.062,43A8.064,8.064,0,0,1,.008,35.317L0,34.938V27.77a2.688,2.688,0,0,1,5.363-.258l.011.258v7.167A2.688,2.688,0,0,0,7.8,37.613l.26.011h7.166a2.688,2.688,0,0,1,.26,5.363l-.26.013ZM37.637,15.488l-.013-.26V8.062A2.688,2.688,0,0,0,35.2,5.387l-.258-.013H27.77A2.687,2.687,0,0,1,27.512.013L27.77,0h7.167A8.062,8.062,0,0,1,42.99,7.683l.01.379v7.166a2.688,2.688,0,0,1-5.363.26Zm-37.624,0L0,15.228V8.062A8.062,8.062,0,0,1,7.683.008L8.062,0h7.166a2.688,2.688,0,0,1,.26,5.363l-.26.011H8.062A2.688,2.688,0,0,0,5.387,7.8l-.013.26v7.166a2.687,2.687,0,0,1-5.361.26Z" transform="translate(0 0)" fill="#044468"/>
</svg>
