<svg id="Minimize" xmlns="http://www.w3.org/2000/svg" width="43" height="43" viewBox="0 0 43 43">
  <path id="Path" d="M25.1,40.572l-.011-.26V33.146a8.062,8.062,0,0,1,7.682-8.054l.381-.008h7.166a2.687,2.687,0,0,1,.26,5.361l-.26.013H33.146a2.686,2.686,0,0,0-2.675,2.428l-.013.26v7.166a2.688,2.688,0,0,1-5.363.26Zm-12.542,0-.011-.26V33.146a2.686,2.686,0,0,0-2.428-2.675l-.26-.013H2.688a2.688,2.688,0,0,1-.26-5.363l.26-.011H9.854a8.062,8.062,0,0,1,8.054,7.682l.008.381v7.166a2.688,2.688,0,0,1-5.363.26ZM33.146,17.916a8.062,8.062,0,0,1-8.054-7.683l-.008-.379V2.688a2.687,2.687,0,0,1,5.361-.26l.013.26V9.854a2.688,2.688,0,0,0,2.428,2.675l.26.013h7.166a2.687,2.687,0,0,1,.26,5.361l-.26.013Zm-30.458,0a2.688,2.688,0,0,1-.26-5.363l.26-.011H9.854a2.688,2.688,0,0,0,2.675-2.428l.013-.26V2.688a2.687,2.687,0,0,1,5.361-.26l.013.26V9.854a8.062,8.062,0,0,1-7.683,8.054l-.379.008Z" transform="translate(0 0)" fill="#044468"/>
</svg>
