<svg xmlns="http://www.w3.org/2000/svg" width="42.503" height="30.117" viewBox="0 0 42.503 30.117">
  <g id="Rewind" transform="translate(0 -6.194)">
    <path id="Path" d="M38.215,29.553l-15.939-12.4a2.66,2.66,0,0,1,0-4.194L38.215.564A2.616,2.616,0,0,1,39.835,0,2.672,2.672,0,0,1,42.5,2.662V27.455a2.672,2.672,0,0,1-2.668,2.662A2.616,2.616,0,0,1,38.215,29.553ZM28.234,15.059l8.956,6.965V8.091ZM16.964,29.553,1.025,17.155a2.657,2.657,0,0,1,0-4.194L16.964.564A2.616,2.616,0,0,1,18.583,0a2.672,2.672,0,0,1,2.668,2.662V27.455a2.672,2.672,0,0,1-2.668,2.662A2.616,2.616,0,0,1,16.964,29.553ZM6.983,15.059l8.956,6.965V8.091Z" transform="translate(0 6.194)" fill="#044468"/>
  </g>
</svg>
