<svg xmlns="http://www.w3.org/2000/svg" width="42.506" height="35.137" viewBox="0 0 42.506 35.137">
  <g id="Twitter" transform="translate(0 -5.133)">
    <path id="Path" d="M20.657,9.361l.085,1.488-1.53-.17A25.039,25.039,0,0,1,4.59,3.495L2.55,1.455,2.04,2.942a8.878,8.878,0,0,0,1.913,9.181c1.19,1.318.935,1.488-1.19.723a3.522,3.522,0,0,0-1.445-.34c-.213.213.51,3.06,1.105,4.165a10,10,0,0,0,4.208,3.953l1.53.723-1.785.043c-1.743,0-1.785,0-1.615.68.6,2,3.06,4.123,5.738,5.058l1.913.68-1.658.978a16.941,16.941,0,0,1-8.246,2.3A9.923,9.923,0,0,0,0,31.335c0,.3,3.74,2.04,5.951,2.72A25.864,25.864,0,0,0,26.1,31.76,26.968,26.968,0,0,0,36.3,19.732a31.332,31.332,0,0,0,2.083-9.308c0-1.4.085-1.615,1.828-3.315a17.579,17.579,0,0,0,2.125-2.38c.34-.6.3-.6-1.275-.085-2.593.935-2.975.808-1.7-.553A9.233,9.233,0,0,0,41.484.775c0-.128-.468.043-1.02.34a16.948,16.948,0,0,1-2.678,1.02l-1.658.553L34.6,1.667A11.846,11.846,0,0,0,32.006.307,9.928,9.928,0,0,0,26.65.435,8.776,8.776,0,0,0,20.657,9.361Z" transform="translate(0 5.133)" fill="#044468"/>
  </g>
</svg>
