<svg xmlns="http://www.w3.org/2000/svg" xmlns:xlink="http://www.w3.org/1999/xlink" width="410" height="342" viewBox="0 0 410 342">
  <defs>
    <filter id="Square" x="0" y="0" width="410" height="342" filterUnits="userSpaceOnUse">
      <feOffset dy="3" input="SourceAlpha"/>
      <feGaussianBlur stdDeviation="3" result="blur"/>
      <feFlood flood-color="#044468" flood-opacity="0.161"/>
      <feComposite operator="in" in2="blur"/>
      <feComposite in="SourceGraphic"/>
    </filter>
    <clipPath id="clip-path">
      <rect width="358" height="22" fill="none"/>
    </clipPath>
    <clipPath id="clip-path-2">
      <rect id="Graph" width="358" height="236.466" fill="#7dd8ff"/>
    </clipPath>
  </defs>
  <g id="Article" transform="translate(9.33 5.856)">
    <g id="Square-2" data-name="Square" transform="translate(-0.33 0.144)">
      <g transform="matrix(1, 0, 0, 1, -9, -6)" filter="url(#Square)">
        <rect id="Square-3" data-name="Square" width="392" height="324" rx="10" transform="translate(9 6)" fill="#fff"/>
      </g>
    </g>
    <g id="Chart" transform="translate(15.67 46.143)">
      <g id="Line">
        <g id="Data" transform="translate(0 236.098)" clip-path="url(#clip-path)">
          <g transform="translate(-385 -711)">
            <text id="Primitives" transform="translate(408 726)" fill="#044468" font-size="14" font-family="Tajawal-Bold, Tajawal" font-weight="700"><tspan x="-20.3" y="0">190</tspan></text>
          </g>
          <g transform="translate(-319 -711)">
            <text id="Primitives-2" data-name="Primitives" transform="translate(408 726)" fill="#044468" font-size="14" font-family="Tajawal-Bold, Tajawal" font-weight="700"><tspan x="-20.3" y="0">160</tspan></text>
          </g>
          <g transform="translate(-253 -711)">
            <text id="Primitives-3" data-name="Primitives" transform="translate(408 726)" fill="#044468" font-size="14" font-family="Tajawal-Bold, Tajawal" font-weight="700"><tspan x="-19.572" y="0">120</tspan></text>
          </g>
          <g transform="translate(-187 -711)">
            <text id="Primitives-4" data-name="Primitives" transform="translate(408 726)" fill="#044468" font-size="14" font-family="Tajawal-Bold, Tajawal" font-weight="700"><tspan x="-15.274" y="0">80</tspan></text>
          </g>
          <g transform="translate(-121 -711)">
            <text id="Primitives-5" data-name="Primitives" transform="translate(408 726)" fill="#044468" font-size="14" font-family="Tajawal-Bold, Tajawal" font-weight="700"><tspan x="-15.764" y="0">40</tspan></text>
          </g>
          <g transform="translate(-55 -711)">
            <text id="Primitives-6" data-name="Primitives" transform="translate(408 726)" fill="#044468" font-size="14" font-family="Tajawal-Bold, Tajawal" font-weight="700"><tspan x="-5.166" y="0">1</tspan></text>
          </g>
        </g>
        <rect id="Line-2" data-name="Line" width="345.01" height="234.098" transform="translate(7)" fill="#fff"/>
        <g id="Graph-2" data-name="Graph" transform="translate(1)">
          <rect id="Graph-3" data-name="Graph" width="358.001" height="236.466" fill="#fff" stroke="rgba(130,162,180,0.11)" stroke-width="1"/>
          <g id="Graph-4" data-name="Graph" transform="translate(1)" clip-path="url(#clip-path-2)">
            <path id="Fill" d="M3.195,230.786c1.953,1.489,4.569.326,11.929-3.453,5.019-2.577,1.569.785,16.951,1.1,14.8-.686,29.934-.759,39.867-3.3,30.45-6.749,55.793-23.27,65.9-27.108,28.882-10.963,60.068-15.443,81.341-15.443,40,4.724,42.73,8.771,74.9,28.067,6.032,4.824,1.771,6.968,32.436,15.739,30.665,4.824,31.2,1.8,37.2,1.8v3.5l-360.533.821Z" transform="translate(-2.908 5.564)" fill="#d6f5ff"/>
            <path id="Path" d="M3.61,230.917c1.085.677,8.79-4.194,12.749-3.494,11.994,2.122,33.625.84,46.8-.948-.044.006,21.711-2.392,39.286-9.853,6.554-2.782,20.885-13.761,43.979-22.06,17.281-6.21,41.378-10.237,61.362-11.586,33.069-2.232,68.509,16.437,73.694,19.547,5.779,3.466,17.543,16.339,34.895,21.715,19.267,5.969,44.149,4.261,47.349,4.261v3.948L3.61,232.327Z" transform="translate(-2.908 5.596)" fill="none" stroke="#044468" stroke-linecap="round" stroke-linejoin="round" stroke-miterlimit="10" stroke-width="2.5"/>
          </g>
        </g>
        <circle id="Oval" cx="7.5" cy="7.5" r="7.5" transform="translate(186.074 181.321)" fill="#044468"/>
      </g>
    </g>
    <text id="Primitives-7" data-name="Primitives" transform="translate(372.671 36.144)" fill="#406983" font-size="20" font-family="Tajawal-Medium, Tajawal" font-weight="500"><tspan x="-127.62" y="0">توزيع المعدلات</tspan></text>
  </g>
</svg>
