<svg xmlns="http://www.w3.org/2000/svg" xmlns:xlink="http://www.w3.org/1999/xlink" width="78" height="78" viewBox="0 0 78 78">
  <defs>
    <filter id="Btn" x="0" y="0" width="78" height="78" filterUnits="userSpaceOnUse">
      <feOffset dy="3" input="SourceAlpha"/>
      <feGaussianBlur stdDeviation="3" result="blur"/>
      <feFlood flood-color="#044468" flood-opacity="0.161"/>
      <feComposite operator="in" in2="blur"/>
      <feComposite in="SourceGraphic"/>
    </filter>
  </defs>
  <g id="Btn-Square" transform="translate(9 6)">
    <g transform="matrix(1, 0, 0, 1, -9, -6)" filter="url(#Btn)">
      <rect id="Btn-2" data-name="Btn" width="60" height="60" rx="16" transform="translate(9 6)" fill="#688fa4"/>
    </g>
    <g id="Star" transform="translate(16 16)">
      <rect id="BG" width="27.996" height="28" fill="#0093ed" opacity="0"/>
      <path id="Path" d="M21.571,26.85h0a1.717,1.717,0,0,1-.719-.159l-.135-.069L14,22.854,7.287,26.622a1.733,1.733,0,0,1-.855.228,1.765,1.765,0,0,1-1.314-.6,1.71,1.71,0,0,1-.427-1.35l.024-.151,1.5-7.565L.564,11.952a1.72,1.72,0,0,1-.5-1.753A1.737,1.737,0,0,1,1.391,8.954l.155-.025L9.188,8.02l3.224-7a1.749,1.749,0,0,1,3.178,0l3.223,7,7.642.909a1.718,1.718,0,0,1,1.432,1.124,1.74,1.74,0,0,1-.339,1.787l-.111.111-5.651,5.236,1.5,7.565a1.714,1.714,0,0,1-.357,1.445A1.782,1.782,0,0,1,21.571,26.85ZM14,5.934l-2.044,4.443a1.764,1.764,0,0,1-1.383,1.006l-4.853.575,3.59,3.326a1.763,1.763,0,0,1,.554,1.447l-.026.179-.953,4.8,4.26-2.389A1.752,1.752,0,0,1,14,19.1a1.734,1.734,0,0,1,.693.143l.163.08,4.259,2.389-.951-4.8a1.759,1.759,0,0,1,.4-1.5l.126-.129,3.589-3.327-4.852-.575a1.759,1.759,0,0,1-1.3-.846l-.084-.161Z" transform="translate(0 0.583)" fill="#fff"/>
    </g>
  </g>
</svg>
