<svg id="Nav" xmlns="http://www.w3.org/2000/svg" width="428" height="71" viewBox="0 0 428 71">
  <rect id="Nav-2" data-name="Nav" width="428" height="71" fill="rgba(255,255,255,0.68)"/>
  <g id="Mersal" transform="translate(366.644 -782.664)">
    <path id="Path_12" data-name="Path 12" d="M22.347,20V36.022H38.37V20ZM36.919,34.57H23.8V21.45H36.919ZM52.028,28.09v-.159c0-.239-.616-1.352-2.485-3.121a6.469,6.469,0,0,0-4.254-1.849c-.457,0-.537.239-.537.378v1.491a1.014,1.014,0,0,1-2.028,0V15.645h-9.2a1.014,1.014,0,0,1,0-2.028h1.511c.139,0,.378-.08.378-.537a6.587,6.587,0,0,0-1.849-4.254c-1.769-1.849-2.883-2.485-3.121-2.485h-.159c-.239,0-1.352.616-3.121,2.485a6.469,6.469,0,0,0-1.849,4.254c0,.358.139.457.2.477a.332.332,0,0,0,.179.06H27.2a1.014,1.014,0,0,1,0,2.028h-9.2v9.2a1.014,1.014,0,0,1-2.028,0V23.338c0-.139-.08-.378-.537-.378a6.587,6.587,0,0,0-4.254,1.849C9.326,26.579,8.69,27.692,8.69,27.931v.159c0,.239.616,1.352,2.485,3.121a6.469,6.469,0,0,0,4.254,1.849c.457,0,.537-.239.537-.378V31.191a1.014,1.014,0,1,1,2.028,0v9.2h9.2a1.014,1.014,0,0,1,0,2.028H25.687c-.139,0-.378.08-.378.537a6.587,6.587,0,0,0,1.849,4.254c1.769,1.849,2.883,2.485,3.121,2.485h.159c.239,0,1.352-.616,3.121-2.485a6.469,6.469,0,0,0,1.849-4.254c0-.457-.239-.537-.378-.537H33.54a1.014,1.014,0,0,1,0-2.028h9.2v-9.2a1.014,1.014,0,1,1,2.028,0V32.7c0,.139.08.378.537.378a6.587,6.587,0,0,0,4.254-1.849c1.829-1.789,2.465-2.9,2.465-3.141ZM28.013,10.238a3.069,3.069,0,0,1,2.346-1.57h.04a3.1,3.1,0,0,1,2.326,1.59l.06.1s-.855-.616-2.405.636l-.02.02-.02-.02c-1.551-1.272-2.405-.636-2.405-.636ZM12.586,30.376a3.069,3.069,0,0,1-1.57-2.346v-.04a3.1,3.1,0,0,1,1.59-2.326l.1-.06s-.616.855.636,2.405l.02.02-.02.02c-1.272,1.551-.636,2.405-.636,2.405ZM32.724,45.783a3.069,3.069,0,0,1-2.346,1.57h-.04a3.1,3.1,0,0,1-2.326-1.59l-.06-.1s.855.616,2.405-.636l.02-.02.02.02c1.551,1.272,2.405.636,2.405.636Zm14-14.453-.417.119-.1-.417a2.5,2.5,0,0,0-4.95.537v7.375H33.878a2.493,2.493,0,0,0-.517,4.93l.417.1-.119.417a1.284,1.284,0,0,1-1.252.895h-.04a2.93,2.93,0,0,1-2.028-1.034,2.93,2.93,0,0,1-2.028,1.034h-.04a1.262,1.262,0,0,1-1.252-.895l-.119-.417.417-.1a2.493,2.493,0,0,0-.537-4.93H19.445V31.569a2.5,2.5,0,0,0-2.485-2.5,2.528,2.528,0,0,0-2.445,1.968l-.1.417L14,31.33a1.257,1.257,0,0,1-.895-1.292,2.93,2.93,0,0,1,1.034-2.028A2.93,2.93,0,0,1,13.1,25.982,1.257,1.257,0,0,1,14,24.69l.417-.119.1.417a2.5,2.5,0,0,0,4.95-.537V17.1H26.84a2.5,2.5,0,0,0,2.5-2.485,2.528,2.528,0,0,0-1.968-2.445l-.417-.1.119-.417a1.284,1.284,0,0,1,1.252-.895h.04A2.93,2.93,0,0,1,30.4,11.788a2.93,2.93,0,0,1,2.028-1.034h.04a1.262,1.262,0,0,1,1.252.895l.119.417-.417.1a2.493,2.493,0,0,0,.537,4.93h7.375v7.375a2.5,2.5,0,0,0,2.485,2.5,2.528,2.528,0,0,0,2.445-1.968l.1-.417.417.119A1.257,1.257,0,0,1,47.674,26,2.93,2.93,0,0,1,46.64,28.03a2.93,2.93,0,0,1,1.034,2.028,1.353,1.353,0,0,1-.954,1.272ZM49.7,28.05a3.1,3.1,0,0,1-1.59,2.326l-.1.06s.616-.855-.636-2.405l-.02-.02.02-.02c1.272-1.551.636-2.405.636-2.405l.119.08A3.069,3.069,0,0,1,49.7,28.01Z" transform="translate(-8.69 789.962)" fill="#044468"/>
    <path id="Path_13" data-name="Path 13" d="M117.261,120.014a4.813,4.813,0,0,1,.139,1.074,4.493,4.493,0,1,1-8.986,0,4.675,4.675,0,0,1,.119-1.073,4.871,4.871,0,1,0,9.244,2.147A5.1,5.1,0,0,0,117.261,120.014Z" transform="translate(-91.218 695.533)" fill="#044468"/>
    <path id="Path_14" data-name="Path 14" d="M122.134,110.652l-.636,2.008,1.71-1.233,1.73,1.233-.656-2.008,1.61-1.173H123.9l-.716-2.147-.676,2.147h-2.028Z" transform="translate(-101.559 706.068)" fill="#044468"/>
  </g>
  <g id="Mauribac" transform="translate(193.567 20)">
    <path id="Path_15" data-name="Path 15" d="M1570.387,650.48a.845.845,0,0,0-.463.209.549.549,0,0,0-.172.329l.025,3.983a1,1,0,0,0-.623.986,1.114,1.114,0,0,0,.606.768c-.14.426-.274.768-.365.99a9.326,9.326,0,0,0-.671,2.287c-.012.108-.029.316.119.4.175.1.479-.034.666-.1a2.168,2.168,0,0,1,.884-.082c.53.047.974-.323.9-.746a.02.02,0,0,0,0-.01,15.112,15.112,0,0,0-.76-2.725,1.1,1.1,0,0,0,.632-.818,1,1,0,0,0-.68-.936Q1570.435,652.75,1570.387,650.48Z" transform="translate(-1533.839 -644.12)" fill="#044468"/>
    <path id="Path_16" data-name="Path 16" d="M555.27,730.376l9.767,2.378a1.131,1.131,0,0,0,.545,0l9.336-2.361a1.132,1.132,0,0,1,1.409,1.1v3.884a1.132,1.132,0,0,1-.476.922,18.426,18.426,0,0,1-21.5,0,1.133,1.133,0,0,1-.478-.925v-3.9a1.132,1.132,0,0,1,1.4-1.1Z" transform="translate(-544.985 -721.938)" fill="#044468"/>
    <path id="Path_17" data-name="Path 17" d="M207.337,406.131l19.9-3.968a.42.42,0,0,1,.164,0l19.878,3.968a.42.42,0,0,1,.021.82l-19.878,5.027a.418.418,0,0,1-.2,0l-19.905-5.028A.42.42,0,0,1,207.337,406.131Z" transform="translate(-206.999 -402.155)" fill="#044468"/>
    <path id="Path_18" data-name="Path 18" d="M245.569,1141.574l-12.215,1.178a2.389,2.389,0,0,1-.833.049,2.513,2.513,0,0,1-1.223-.515,4.169,4.169,0,0,1-1.309-3.03,3.9,3.9,0,0,1,.761-2.8,2.071,2.071,0,0,1,1.365-.84,2.009,2.009,0,0,1,1.611.737,2.307,2.307,0,0,1,.454,1.635,1.669,1.669,0,0,1-.44,1.312,1.123,1.123,0,0,1-.832.272c-.744-.1-1.019-1.117-1.048-1.229a1.969,1.969,0,0,1-.048-.7l-.551-.087c-.065.235-.155.589-.233,1.028a4.013,4.013,0,0,0-.1,1.831,2.278,2.278,0,0,0,.884,1.276,2.385,2.385,0,0,0,1.579.29c1.409-.157,5.812-.573,11.8-1.187a1.038,1.038,0,0,0,.758-.272,1.058,1.058,0,0,0,.235-.745,12.472,12.472,0,0,0-.282-2.738c-.333-1.4-.531-1.691-.823-1.87a1.388,1.388,0,0,0-.675-.191c-.42-.013-1.137-.039-2.026-.085-2.983-.156-4.319-.36-7.206-.526-.621-.036-1.592-.086-2.8-.121a2.346,2.346,0,0,0-.863.019,2.84,2.84,0,0,0-1.661,1.213,4.706,4.706,0,0,0-.779,2.147,7.433,7.433,0,0,0,.015,3.185,3.917,3.917,0,0,0,1.247,2.421,3.465,3.465,0,0,0,1.238.574,5.644,5.644,0,0,0,2.114.124c1.064-.077,1.7-.191,2.44-.294,1.578-.219,2.825-.274,3.422-.3.455-.019.4-.007,3.3-.06l1.072-.02a1.57,1.57,0,0,0,1.322-.512A1.526,1.526,0,0,0,245.569,1141.574Z" transform="translate(-228.345 -1115.463)" fill="#044468"/>
    <path id="Path_19" data-name="Path 19" d="M922.142,1164l3.776.023a.842.842,0,0,1,.767.507,9.1,9.1,0,0,1,.158,6.893.839.839,0,0,1-.781.538l-3.77.018a.841.841,0,0,1-.817-1.058,10.288,10.288,0,0,0-.139-5.823.841.841,0,0,1,.806-1.1Z" transform="translate(-903.001 -1144.486)" fill="#044468"/>
    <path id="Path_20" data-name="Path 20" d="M946.789,1499.5l3.8-.1a.371.371,0,0,1,.056,0,1.039,1.039,0,0,1,.474.188,1.486,1.486,0,0,1,.479.786,4.824,4.824,0,0,1,.19.692.319.319,0,0,1-.473.324l-1.847-.973a.33.33,0,0,0-.442.125l-.666,1.21a.329.329,0,0,1-.586-.034,4.359,4.359,0,0,0-.675-1.162,4.127,4.127,0,0,0-.517-.529A.3.3,0,0,1,946.789,1499.5Z" transform="translate(-927.535 -1471.291)" fill="#044468"/>
    <path id="Path_21" data-name="Path 21" d="M1186.971,1431.136a3.624,3.624,0,0,1-1.127.66,4.142,4.142,0,0,1-2.143.109c-.523-.08-1.586-.173-3.714-.359-.733-.064-.92-.055-2.167-.09-.224-.007-.83-.024-2.042-.069-.552-.02-1.346-.051-2.318-.1a.731.731,0,0,1-.687-.572.751.751,0,0,1,.776-.791c.858.053,1.966.126,3.256.223,2.748.2,4.8.4,5.281.451C1183.461,1430.736,1185.107,1430.91,1186.971,1431.136Z" transform="translate(-1148.031 -1403.605)" fill="#044468"/>
    <path id="Path_22" data-name="Path 22" d="M1164.35,1129.2c6.157-.632,10.746-.931,12.313-.871a3.079,3.079,0,0,1,1.65.488,3.4,3.4,0,0,1,1.219,1.8,7.167,7.167,0,0,1,.351,2.9,12.962,12.962,0,0,1-.247,2.264,1.028,1.028,0,0,1-.493.6,1.188,1.188,0,0,1-.724.019c-.43-.068-.871-.053-1.3-.128-.167-.029-1.15-.114-3.118-.282-1.519-.131-4.229-.347-7.7-.594a1.348,1.348,0,0,1-.687-.294c-.67-.573-.394-1.692-.466-2.953A7.733,7.733,0,0,0,1164.35,1129.2Z" transform="translate(-1139.829 -1109.725)" fill="#044468"/>
  </g>
  <g id="Back" transform="translate(15.553 20.248)">
    <path id="Path" d="M8.218.439a1.5,1.5,0,0,1,2.224,2.007l-.1.114L3.621,9.278,10.339,16a1.5,1.5,0,0,1,.1,2.007l-.1.114a1.5,1.5,0,0,1-2.007.1l-.114-.1L.439,10.339a1.5,1.5,0,0,1-.1-2.007l.1-.114Z" transform="translate(9.068 4.82)" fill="#044468"/>
  </g>
</svg>
