<svg xmlns="http://www.w3.org/2000/svg" xmlns:xlink="http://www.w3.org/1999/xlink" width="408.666" height="83" viewBox="0 0 408.666 83">
  <defs>
    <filter id="Input" x="0" y="0" width="408.666" height="83" filterUnits="userSpaceOnUse">
      <feOffset dy="3" input="SourceAlpha"/>
      <feGaussianBlur stdDeviation="3" result="blur"/>
      <feFlood flood-color="#044468" flood-opacity="0.161"/>
      <feComposite operator="in" in2="blur"/>
      <feComposite in="SourceGraphic"/>
    </filter>
  </defs>
  <g id="Select-Input" transform="translate(9 6)">
    <g transform="matrix(1, 0, 0, 1, -9, -6)" filter="url(#Input)">
      <rect id="Input-2" data-name="Input" width="390.666" height="65" rx="16" transform="translate(9 6)" fill="#fff"/>
    </g>
    <text id="Primitives" transform="translate(366.666 39)" fill="#688fa4" font-size="20" font-family="Tajawal-Bold, Tajawal" font-weight="700"><tspan x="-122.36" y="0">اختر المسابقة</tspan></text>
    <g id="Down" transform="translate(-3.104 29.1)">
      <path id="Path" d="M8.218,18.117a1.5,1.5,0,0,0,2.224-2.007l-.1-.114L3.621,9.278l6.718-6.718a1.5,1.5,0,0,0,.1-2.007l-.1-.114a1.5,1.5,0,0,0-2.007-.1l-.114.1L.439,8.218a1.5,1.5,0,0,0-.1,2.007l.1.114Z" transform="translate(27.104 10.778) rotate(-90)" fill="#688fa4"/>
    </g>
  </g>
</svg>
