<svg xmlns="http://www.w3.org/2000/svg" xmlns:xlink="http://www.w3.org/1999/xlink" width="428" height="926" viewBox="0 0 428 926">
  <defs>
    <filter id="Square" x="9" y="346" width="410" height="507" filterUnits="userSpaceOnUse">
      <feOffset dy="3" input="SourceAlpha"/>
      <feGaussianBlur stdDeviation="3" result="blur"/>
      <feFlood flood-color="#044468" flood-opacity="0.161"/>
      <feComposite operator="in" in2="blur"/>
      <feComposite in="SourceGraphic"/>
    </filter>
    <filter id="Btn" x="167" y="786" width="94" height="56" filterUnits="userSpaceOnUse">
      <feOffset dy="3" input="SourceAlpha"/>
      <feGaussianBlur stdDeviation="3" result="blur-2"/>
      <feFlood flood-color="#044468" flood-opacity="0.161"/>
      <feComposite operator="in" in2="blur-2"/>
      <feComposite in="SourceGraphic"/>
    </filter>
    <clipPath id="clip-path">
      <rect width="368" height="413.677" fill="none"/>
    </clipPath>
    <clipPath id="clip-path-2">
      <rect x="-147" width="368" height="73" fill="none"/>
    </clipPath>
    <filter id="Square-2" x="9" y="269" width="410" height="82" filterUnits="userSpaceOnUse">
      <feOffset dy="3" input="SourceAlpha"/>
      <feGaussianBlur stdDeviation="3" result="blur-3"/>
      <feFlood flood-color="#044468" flood-opacity="0.161"/>
      <feComposite operator="in" in2="blur-3"/>
      <feComposite in="SourceGraphic"/>
    </filter>
    <clipPath id="clip-path-7">
      <rect width="368" height="28" fill="none"/>
    </clipPath>
    <filter id="Btn-2" x="331" y="197" width="78" height="78" filterUnits="userSpaceOnUse">
      <feOffset dy="3" input="SourceAlpha"/>
      <feGaussianBlur stdDeviation="3" result="blur-4"/>
      <feFlood flood-color="#044468" flood-opacity="0.161"/>
      <feComposite operator="in" in2="blur-4"/>
      <feComposite in="SourceGraphic"/>
    </filter>
    <filter id="Btn-3" x="253" y="197" width="78" height="78" filterUnits="userSpaceOnUse">
      <feOffset dy="3" input="SourceAlpha"/>
      <feGaussianBlur stdDeviation="3" result="blur-5"/>
      <feFlood flood-color="#044468" flood-opacity="0.161"/>
      <feComposite operator="in" in2="blur-5"/>
      <feComposite in="SourceGraphic"/>
    </filter>
    <filter id="Btn-4" x="175" y="197" width="78" height="78" filterUnits="userSpaceOnUse">
      <feOffset dy="3" input="SourceAlpha"/>
      <feGaussianBlur stdDeviation="3" result="blur-6"/>
      <feFlood flood-color="#044468" flood-opacity="0.161"/>
      <feComposite operator="in" in2="blur-6"/>
      <feComposite in="SourceGraphic"/>
    </filter>
    <filter id="Btn-5" x="97" y="197" width="78" height="78" filterUnits="userSpaceOnUse">
      <feOffset dy="3" input="SourceAlpha"/>
      <feGaussianBlur stdDeviation="3" result="blur-7"/>
      <feFlood flood-color="#044468" flood-opacity="0.161"/>
      <feComposite operator="in" in2="blur-7"/>
      <feComposite in="SourceGraphic"/>
    </filter>
    <filter id="Btn-6" x="19" y="197" width="78" height="78" filterUnits="userSpaceOnUse">
      <feOffset dy="3" input="SourceAlpha"/>
      <feGaussianBlur stdDeviation="3" result="blur-8"/>
      <feFlood flood-color="#044468" flood-opacity="0.161"/>
      <feComposite operator="in" in2="blur-8"/>
      <feComposite in="SourceGraphic"/>
    </filter>
    <filter id="Square-3" x="9" y="83" width="410" height="82" filterUnits="userSpaceOnUse">
      <feOffset dy="3" input="SourceAlpha"/>
      <feGaussianBlur stdDeviation="3" result="blur-9"/>
      <feFlood flood-color="#044468" flood-opacity="0.161"/>
      <feComposite operator="in" in2="blur-9"/>
      <feComposite in="SourceGraphic"/>
    </filter>
    <clipPath id="clip-path-8">
      <rect width="368" height="32" fill="none"/>
    </clipPath>
    <filter id="Menu" x="-6" y="851.802" width="440" height="78.197" filterUnits="userSpaceOnUse">
      <feOffset dy="-2" input="SourceAlpha"/>
      <feGaussianBlur stdDeviation="2" result="blur-10"/>
      <feFlood flood-color="#044468" flood-opacity="0.2"/>
      <feComposite operator="in" in2="blur-10"/>
      <feComposite in="SourceGraphic"/>
    </filter>
    <clipPath id="clip-Students_">
      <rect width="428" height="926"/>
    </clipPath>
  </defs>
  <g id="Students_" data-name="Students " clip-path="url(#clip-Students_)">
    <rect width="428" height="926" fill="#fff"/>
    <g id="Section" transform="translate(-15 -34.708)">
      <rect id="Content" width="428" height="860" transform="translate(15 34.708)" fill="#f5f7fb"/>
      <g id="Articles" transform="translate(64.125 280.334)">
        <g id="Square-4" data-name="Square" transform="translate(-31.125 106.375)">
          <g transform="matrix(1, 0, 0, 1, -18, -352)" filter="url(#Square)">
            <rect id="Square-5" data-name="Square" width="392" height="489" rx="16" transform="translate(18 352)" fill="#fff"/>
          </g>
        </g>
        <g id="Btn-Small" transform="translate(126.875 546.375)">
          <g transform="matrix(1, 0, 0, 1, -176, -792)" filter="url(#Btn)">
            <rect id="Btn-7" data-name="Btn" width="76" height="38" rx="10" transform="translate(176 792)" fill="#52c1ff"/>
          </g>
          <text id="Primitives" transform="translate(38 24.5)" fill="#fff" font-size="14" font-family="Tajawal-Bold, Tajawal" font-weight="700"><tspan x="-18.578" y="0">المزيد</tspan></text>
        </g>
        <line id="Break" x2="392" transform="translate(-31.125 534.375)" fill="none" stroke="#f3f5f9" stroke-width="1"/>
        <g id="List" transform="translate(-19.256 119.374)">
          <g id="List-2" data-name="List" clip-path="url(#clip-path)">
            <g transform="translate(19.256 -6.198)">
              <g id="Overlay" transform="translate(127.744 6.198)" clip-path="url(#clip-path-2)" style="isolation: isolate">
                <g id="Student" transform="translate(-161.369 -12.198)">
                  <rect id="Square-6" data-name="Square" width="224.131" height="73" transform="translate(158.369 12.198)" fill="none"/>
                  <g id="Shap" transform="translate(319 19.134)">
                    <g id="Circle" transform="translate(-0.5 -0.759)">
                      <circle id="Oval" cx="30" cy="30" r="30" fill="#d6f5ff"/>
                    </g>
                    <text id="Primitives-2" data-name="Primitives" transform="translate(29.5 33.741)" fill="#406983" font-size="18" font-family="Tajawal-Bold, Tajawal" font-weight="700"><tspan x="-18.108" y="0">17.78</tspan></text>
                  </g>
                  <g id="Text_Block" data-name="Text Block" transform="translate(7 24.198)">
                    <g id="Details" transform="translate(169 30)">
                      <text id="داخلت_انواذيبو" data-name="داخلت انواذيبو" transform="translate(81 14)" fill="#6b91a6" font-size="14" font-family="Tajawal-Medium, Tajawal" font-weight="500"><tspan x="-81.046" y="0">داخلت انواذيبو</tspan></text>
                      <text id="النجوم" transform="translate(113 14)" fill="#03a4ff" font-size="14" font-family="Tajawal-Medium, Tajawal" font-weight="500"><tspan x="-18.879" y="0">النجوم</tspan></text>
                      <circle id="Ellipse" cx="2" cy="2" r="2" transform="translate(86 10)" fill="#627f92"/>
                    </g>
                    <g id="Heading" transform="translate(163.369)">
                      <text id="سيدي_سيدأحمد" data-name="سيدي سيدأحمد" transform="translate(140 21)" fill="#406983" font-size="20" font-family="Tajawal-Bold, Tajawal" font-weight="700"><tspan x="-139.96" y="0">سيدي سيدأحمد</tspan></text>
                    </g>
                  </g>
                </g>
              </g>
            </g>
            <g transform="translate(19.256 78.802)">
              <g id="Overlay-2" data-name="Overlay" transform="translate(127.744 6.198)" clip-path="url(#clip-path-2)" style="isolation: isolate">
                <g id="Student-2" data-name="Student" transform="translate(-161.369 -12.198)">
                  <rect id="Square-7" data-name="Square" width="227.131" height="73" transform="translate(155.369 12.198)" fill="none"/>
                  <g id="Shap-2" data-name="Shap" transform="translate(319 19.134)">
                    <g id="Circle-2" data-name="Circle" transform="translate(-0.5 -0.759)">
                      <circle id="Oval-2" data-name="Oval" cx="30" cy="30" r="30" fill="#d6f5ff"/>
                    </g>
                    <text id="Primitives-3" data-name="Primitives" transform="translate(29.5 33.741)" fill="#406983" font-size="18" font-family="Tajawal-Bold, Tajawal" font-weight="700"><tspan x="-18.828" y="0">17.02</tspan></text>
                  </g>
                  <g id="Text_Block-2" data-name="Text Block" transform="translate(7 24.198)">
                    <g id="Details-2" data-name="Details" transform="translate(169 30)">
                      <text id="انواكشوط" transform="translate(81 14)" fill="#6b91a6" font-size="14" font-family="Tajawal-Medium, Tajawal" font-weight="500"><tspan x="-60.34" y="0">انواكشوط</tspan></text>
                      <text id="النجوم-2" data-name="النجوم" transform="translate(113 14)" fill="#03a4ff" font-size="14" font-family="Tajawal-Medium, Tajawal" font-weight="500"><tspan x="-18.879" y="0">النجوم</tspan></text>
                      <circle id="Ellipse-2" data-name="Ellipse" cx="2" cy="2" r="2" transform="translate(86 10)" fill="#627f92"/>
                    </g>
                    <g id="Heading-2" data-name="Heading" transform="translate(163.369)">
                      <text id="محمد_لمين_أحمد" data-name="محمد لمين أحمد" transform="translate(140 21)" fill="#406983" font-size="20" font-family="Tajawal-Bold, Tajawal" font-weight="700"><tspan x="-143.22" y="0">محمد لمين أحمد</tspan></text>
                    </g>
                  </g>
                </g>
              </g>
            </g>
            <g transform="translate(19.256 163.802)">
              <g id="Overlay-3" data-name="Overlay" transform="translate(127.744 6.198)" clip-path="url(#clip-path-2)" style="isolation: isolate">
                <g id="Student-3" data-name="Student" transform="translate(-161.369 -12.198)">
                  <rect id="Square-8" data-name="Square" width="228.131" height="73" transform="translate(154.369 12.198)" fill="none"/>
                  <g id="Shap-3" data-name="Shap" transform="translate(319 19.134)">
                    <g id="Circle-3" data-name="Circle" transform="translate(-0.5 -0.759)">
                      <circle id="Oval-3" data-name="Oval" cx="30" cy="30" r="30" fill="#d6f5ff"/>
                    </g>
                    <text id="Primitives-4" data-name="Primitives" transform="translate(29.5 33.741)" fill="#406983" font-size="18" font-family="Tajawal-Bold, Tajawal" font-weight="700"><tspan x="-21.069" y="0">16.00</tspan></text>
                  </g>
                  <g id="Text_Block-3" data-name="Text Block" transform="translate(7 24.198)">
                    <g id="Details-3" data-name="Details" transform="translate(169 30)">
                      <text id="الزويرات" transform="translate(81 14)" fill="#6b91a6" font-size="14" font-family="Tajawal-Medium, Tajawal" font-weight="500"><tspan x="-47.306" y="0">الزويرات</tspan></text>
                      <text id="النجوم-3" data-name="النجوم" transform="translate(113 14)" fill="#03a4ff" font-size="14" font-family="Tajawal-Medium, Tajawal" font-weight="500"><tspan x="-18.879" y="0">النجوم</tspan></text>
                      <circle id="Ellipse-3" data-name="Ellipse" cx="2" cy="2" r="2" transform="translate(86 10)" fill="#627f92"/>
                    </g>
                    <g id="Heading-3" data-name="Heading" transform="translate(163.369)">
                      <text id="السلطانة_سيدي" data-name="السلطانة سيدي" transform="translate(140 21)" fill="#406983" font-size="20" font-family="Tajawal-Bold, Tajawal" font-weight="700"><tspan x="-143.78" y="0">السلطانة سيدي</tspan></text>
                    </g>
                  </g>
                </g>
              </g>
            </g>
            <g transform="translate(19.256 248.802)">
              <g id="Overlay-4" data-name="Overlay" transform="translate(127.744 6.198)" clip-path="url(#clip-path-2)" style="isolation: isolate">
                <g id="Student-4" data-name="Student" transform="translate(-161.369 -12.198)">
                  <rect id="Square-9" data-name="Square" width="201.5" height="73" transform="translate(181 12.198)" fill="none"/>
                  <g id="Shap-4" data-name="Shap" transform="translate(319 19.134)">
                    <g id="Circle-4" data-name="Circle" transform="translate(-0.5 -0.759)">
                      <circle id="Oval-4" data-name="Oval" cx="30" cy="30" r="30" fill="#d6f5ff"/>
                    </g>
                    <text id="Primitives-5" data-name="Primitives" transform="translate(29.5 33.741)" fill="#406983" font-size="18" font-family="Tajawal-Bold, Tajawal" font-weight="700"><tspan x="-20.664" y="0">14.99</tspan></text>
                  </g>
                  <g id="Text_Block-4" data-name="Text Block" transform="translate(7 24.198)">
                    <g id="Details-4" data-name="Details" transform="translate(169 30)">
                      <text id="داخلت_اطار" data-name="داخلت اطار" transform="translate(81 14)" fill="#6b91a6" font-size="14" font-family="Tajawal-Medium, Tajawal" font-weight="500"><tspan x="-63.154" y="0">داخلت اطار</tspan></text>
                      <text id="النجوم-4" data-name="النجوم" transform="translate(113 14)" fill="#03a4ff" font-size="14" font-family="Tajawal-Medium, Tajawal" font-weight="500"><tspan x="-18.879" y="0">النجوم</tspan></text>
                      <circle id="Ellipse-4" data-name="Ellipse" cx="2" cy="2" r="2" transform="translate(86 10)" fill="#627f92"/>
                    </g>
                    <g id="Heading-4" data-name="Heading" transform="translate(163.369)">
                      <text id="حماد_الزبير" data-name="حماد الزبير" transform="translate(140 21)" fill="#406983" font-size="20" font-family="Tajawal-Bold, Tajawal" font-weight="700"><tspan x="-90.96" y="0">حماد الزبير</tspan></text>
                    </g>
                  </g>
                </g>
              </g>
            </g>
            <g transform="translate(19.256 333.802)">
              <g id="Overlay-5" data-name="Overlay" transform="translate(127.744 6.198)" clip-path="url(#clip-path-2)" style="isolation: isolate">
                <g id="Student-5" data-name="Student" transform="translate(-161.369 -12.198)">
                  <rect id="Square-10" data-name="Square" width="207.131" height="73" transform="translate(175.369 12.198)" fill="none"/>
                  <g id="Shap-5" data-name="Shap" transform="translate(319 19.134)">
                    <g id="Circle-5" data-name="Circle" transform="translate(-0.5 -0.759)">
                      <circle id="Oval-5" data-name="Oval" cx="30" cy="30" r="30" fill="#d6f5ff"/>
                    </g>
                    <text id="Primitives-6" data-name="Primitives" transform="translate(29.5 33.741)" fill="#406983" font-size="18" font-family="Tajawal-Bold, Tajawal" font-weight="700"><tspan x="-20.664" y="0">14.99</tspan></text>
                  </g>
                  <g id="Text_Block-5" data-name="Text Block" transform="translate(7 24.198)">
                    <g id="Details-5" data-name="Details" transform="translate(169 30)">
                      <text id="داخلت_اطار-2" data-name="داخلت اطار" transform="translate(81 14)" fill="#6b91a6" font-size="14" font-family="Tajawal-Medium, Tajawal" font-weight="500"><tspan x="-63.154" y="0">داخلت اطار</tspan></text>
                      <text id="النجوم-5" data-name="النجوم" transform="translate(113 14)" fill="#03a4ff" font-size="14" font-family="Tajawal-Medium, Tajawal" font-weight="500"><tspan x="-18.879" y="0">النجوم</tspan></text>
                      <circle id="Ellipse-5" data-name="Ellipse" cx="2" cy="2" r="2" transform="translate(86 10)" fill="#627f92"/>
                    </g>
                    <g id="Heading-5" data-name="Heading" transform="translate(163.369)">
                      <text id="الممتاز_الطلبة" data-name="الممتاز الطلبة" transform="translate(140 21)" fill="#406983" font-size="20" font-family="Tajawal-Bold, Tajawal" font-weight="700"><tspan x="-122.88" y="0">الممتاز الطلبة</tspan></text>
                    </g>
                  </g>
                </g>
              </g>
            </g>
          </g>
        </g>
      </g>
      <g id="Sub_Tab" data-name="Sub Tab" transform="translate(33 309.708)">
        <g id="Square-11" data-name="Square">
          <g transform="matrix(1, 0, 0, 1, -18, -275)" filter="url(#Square-2)">
            <rect id="Square-12" data-name="Square" width="392" height="64" rx="10" transform="translate(18 275)" fill="#fff"/>
          </g>
        </g>
        <g id="Links" transform="translate(12 18)" clip-path="url(#clip-path-7)">
          <g transform="translate(-548.303 -556.272)">
            <text id="Primitives-7" data-name="Primitives" transform="translate(585.303 575.272)" fill="#406983" font-size="18" font-family="Tajawal-Medium, Tajawal" font-weight="500"><tspan x="-31.014" y="0">الولايات</tspan><tspan y="0"> </tspan></text>
          </g>
          <g transform="translate(-454.303 -556.272)">
            <text id="Primitives-8" data-name="Primitives" transform="translate(585.303 575.272)" fill="#406983" font-size="18" font-family="Tajawal-Medium, Tajawal" font-weight="500"><tspan x="-35.145" y="0">المدارس</tspan><tspan y="0"> </tspan></text>
          </g>
          <g transform="translate(-360.303 -556.272)">
            <text id="Primitives-9" data-name="Primitives" transform="translate(585.303 575.272)" fill="#406983" font-size="18" font-family="Tajawal-Medium, Tajawal" font-weight="500"><tspan x="-27.261" y="0">الطلاب</tspan></text>
          </g>
          <g transform="translate(-266.303 -556.272)">
            <text id="Primitives-10" data-name="Primitives" transform="translate(585.303 575.272)" fill="#406983" font-size="18" font-family="Tajawal-Medium, Tajawal" font-weight="500"><tspan x="-43.731" y="0">الإحصائيات</tspan><tspan y="0"> </tspan></text>
          </g>
        </g>
        <path id="Active" d="M82,0H0" transform="translate(196.5 63)" fill="#044468" stroke="#044468" stroke-linecap="round" stroke-width="2"/>
      </g>
      <g id="Tags" transform="translate(43 237.708)">
        <g id="Btn-Square" transform="translate(268 -320.708)">
          <g transform="matrix(1, 0, 0, 1, -296, 117.71)" filter="url(#Btn-2)">
            <rect id="Btn-8" data-name="Btn" width="60" height="60" rx="20" transform="translate(340 203)" fill="#fff"/>
          </g>
          <text id="Primitives-11" data-name="Primitives" transform="translate(74 356.708)" fill="#406983" font-size="20" font-family="Tajawal-Medium, Tajawal" font-weight="500"><tspan x="-11.12" y="0">LO</tspan></text>
        </g>
        <g id="Btn-Square-2" data-name="Btn-Square" transform="translate(190 -320.708)">
          <g transform="matrix(1, 0, 0, 1, -218, 117.71)" filter="url(#Btn-3)">
            <rect id="Btn-9" data-name="Btn" width="60" height="60" rx="20" transform="translate(262 203)" fill="#fff"/>
          </g>
          <text id="Primitives-12" data-name="Primitives" transform="translate(74 356.708)" fill="#406983" font-size="20" font-family="Tajawal-Medium, Tajawal" font-weight="500"><tspan x="-12.73" y="0">LM</tspan></text>
        </g>
        <g id="Btn-Square-3" data-name="Btn-Square" transform="translate(112 -320.708)">
          <g transform="matrix(1, 0, 0, 1, -140, 117.71)" filter="url(#Btn-4)">
            <rect id="Btn-10" data-name="Btn" width="60" height="60" rx="20" transform="translate(184 203)" fill="#fff"/>
          </g>
          <text id="Primitives-13" data-name="Primitives" transform="translate(74 356.708)" fill="#406983" font-size="20" font-family="Tajawal-Medium, Tajawal" font-weight="500"><tspan x="-12.04" y="0">SN</tspan></text>
        </g>
        <g id="Btn-Square-4" data-name="Btn-Square" transform="translate(34 -320.708)">
          <g transform="matrix(1, 0, 0, 1, -62, 117.71)" filter="url(#Btn-5)">
            <rect id="Btn-11" data-name="Btn" width="60" height="60" rx="20" transform="translate(106 203)" fill="#044468"/>
          </g>
          <text id="Primitives-14" data-name="Primitives" transform="translate(74 356.708)" fill="#fff" font-size="20" font-family="Tajawal-Medium, Tajawal" font-weight="500"><tspan x="-13.38" y="0">TM</tspan></text>
        </g>
        <g id="Btn-Square-5" data-name="Btn-Square" transform="translate(-44 -320.708)">
          <g transform="matrix(1, 0, 0, 1, 16, 117.71)" filter="url(#Btn-6)">
            <rect id="Btn-12" data-name="Btn" width="60" height="60" rx="20" transform="translate(28 203)" fill="#fff"/>
          </g>
          <text id="Primitives-15" data-name="Primitives" transform="translate(74 356.708)" fill="#406983" font-size="20" font-family="Tajawal-Medium, Tajawal" font-weight="500"><tspan x="-8" y="0">M</tspan></text>
        </g>
      </g>
      <g id="Title" transform="translate(264 87.564)">
        <text id="Primitives-16" data-name="Primitives" transform="translate(55 131.144)" fill="#406983" font-size="18" font-family="Tajawal-Medium, Tajawal" font-weight="500"><tspan x="-32.409" y="0">الباكلوريا</tspan></text>
        <circle id="Ellipse-6" data-name="Ellipse" cx="2" cy="2" r="2" transform="translate(13.75 124.144)" fill="#406983"/>
        <text id="Primitives-17" data-name="Primitives" transform="translate(-47.5 131.144)" fill="#406983" font-size="18" font-family="Tajawal-Medium, Tajawal" font-weight="500"><tspan x="-51.282" y="0">جميع الشعب</tspan></text>
        <circle id="Ellipse-7" data-name="Ellipse" cx="2" cy="2" r="2" transform="translate(-113.25 124.144)" fill="#406983"/>
        <text id="Primitives-18" data-name="Primitives" transform="translate(-139 131.144)" fill="#406983" font-size="18" font-family="Tajawal-Medium, Tajawal" font-weight="500"><tspan x="-17.1" y="0">2021</tspan></text>
      </g>
      <g id="Tabs" transform="translate(33 123.708)">
        <g id="Square-13" data-name="Square">
          <g transform="matrix(1, 0, 0, 1, -18, -89)" filter="url(#Square-3)">
            <rect id="Square-14" data-name="Square" width="392" height="64" rx="10" transform="translate(18 89)" fill="#fff"/>
          </g>
        </g>
        <g id="Links-2" data-name="Links" transform="translate(12 16)" clip-path="url(#clip-path-8)">
          <g transform="translate(-271.806 -16.144)">
            <text id="Primitives-19" data-name="Primitives" transform="translate(320.806 38.144)" fill="#044468" font-size="20" font-family="Tajawal-Medium, Tajawal" font-weight="500"><tspan x="-48.21" y="0">CONCOURS</tspan></text>
          </g>
          <g transform="translate(-136.806 -16.144)">
            <text id="Primitives-20" data-name="Primitives" transform="translate(320.806 38.144)" fill="#044468" font-size="20" font-family="Tajawal-Medium, Tajawal" font-weight="500"><tspan x="-21.75" y="0">BEPC</tspan></text>
          </g>
          <g transform="translate(-1.806 -16.144)">
            <text id="Primitives-21" data-name="Primitives" transform="translate(320.806 38.144)" fill="#044468" font-size="20" font-family="Tajawal-Medium, Tajawal" font-weight="500"><tspan x="-16.53" y="0">BAC</tspan></text>
          </g>
        </g>
        <path id="Active-2" data-name="Active" d="M82,0H0" transform="translate(290.5 63)" fill="#044468" stroke="#044468" stroke-linecap="round" stroke-width="2"/>
      </g>
    </g>
    <g id="Footer">
      <g id="Menu-2" data-name="Menu" transform="translate(0 859.802)">
        <g transform="matrix(1, 0, 0, 1, 0, -859.8)" filter="url(#Menu)">
          <path id="Menu-3" data-name="Menu" d="M0,0H428V66.2H0Z" transform="translate(0 859.8)" fill="#fff"/>
        </g>
        <g id="Share" transform="translate(277)">
          <rect id="Tab" width="101.378" height="66.197" fill="none"/>
          <g id="Share-2" data-name="Share" transform="translate(39 18.197)">
            <path id="Path" d="M19.5,0a1.5,1.5,0,0,1,.144,2.993L19.5,3H6.361a3.361,3.361,0,0,0-.184,6.717l.184,0H6.5a1.5,1.5,0,0,1,.144,2.993l-.144.007H6.361A6.361,6.361,0,0,1,6.133,0l.228,0Z" transform="translate(0 8.278)" fill="#6b91a6"/>
            <path id="Path-2" data-name="Path" d="M.439.439a1.5,1.5,0,0,1,2.007-.1l.114.1L7.839,5.718a1.5,1.5,0,0,1,.1,2.007l-.1.114L2.561,13.117A1.5,1.5,0,0,1,.336,11.11L.439,11,4.657,6.778.439,2.561A1.5,1.5,0,0,1,.336.553Z" transform="translate(15.722 3)" fill="#6b91a6"/>
          </g>
        </g>
        <g id="Search" transform="translate(163.5)">
          <rect id="Tab-2" data-name="Tab" width="104.794" height="66.197" fill="none"/>
          <g id="Search-2" data-name="Search" transform="translate(40.5 18.197)">
            <path id="Shape" d="M21.439,23.561,16.788,18.91A10.5,10.5,0,1,1,10.5,0V3A7.5,7.5,0,1,0,18,10.5,7.5,7.5,0,0,0,10.5,3V0A10.5,10.5,0,0,1,18.91,16.788l4.652,4.651a1.5,1.5,0,0,1-2.122,2.122Z" fill="#6b91a6"/>
          </g>
        </g>
        <g id="Home" transform="translate(50)">
          <rect id="Tab-3" data-name="Tab" width="100" height="66.197" fill="none"/>
          <g id="Home-2" data-name="Home" transform="translate(38 18.197)">
            <path id="Path-3" data-name="Path" d="M21.5,24H17a2.5,2.5,0,0,1-2.5-2.5V19a2.5,2.5,0,1,0-5,0v2.5A2.5,2.5,0,0,1,7,24H2.5A2.5,2.5,0,0,1,0,21.5V10.932A5.5,5.5,0,0,1,2.346,6.427L11.14.271a1.5,1.5,0,0,1,1.72,0l8.794,6.156A5.5,5.5,0,0,1,24,10.932V21.5A2.5,2.5,0,0,1,21.5,24ZM12,13.5A5.506,5.506,0,0,1,17.5,19v2H21V10.932A2.491,2.491,0,0,0,20.083,9l-.149-.113L12,3.33,4.066,8.885A2.5,2.5,0,0,0,3,10.932V21H6.5V19a5.5,5.5,0,0,1,5.279-5.5Z" transform="translate(0 0)" fill="#044468"/>
          </g>
        </g>
        <rect id="Active-3" data-name="Active" width="100" height="2" transform="translate(50 64.197)" fill="#044468"/>
      </g>
    </g>
    <g id="Header">
      <g id="Nav">
        <rect id="Nav-2" data-name="Nav" width="428" height="71" fill="rgba(255,255,255,0.68)"/>
        <g id="Mersal" transform="translate(366.644 -782.664)">
          <path id="Path_12" data-name="Path 12" d="M22.347,20V36.022H38.37V20ZM36.919,34.57H23.8V21.45H36.919ZM52.028,28.09v-.159c0-.239-.616-1.352-2.485-3.121a6.469,6.469,0,0,0-4.254-1.849c-.457,0-.537.239-.537.378v1.491a1.014,1.014,0,0,1-2.028,0V15.645h-9.2a1.014,1.014,0,0,1,0-2.028h1.511c.139,0,.378-.08.378-.537a6.587,6.587,0,0,0-1.849-4.254c-1.769-1.849-2.883-2.485-3.121-2.485h-.159c-.239,0-1.352.616-3.121,2.485a6.469,6.469,0,0,0-1.849,4.254c0,.358.139.457.2.477a.332.332,0,0,0,.179.06H27.2a1.014,1.014,0,0,1,0,2.028h-9.2v9.2a1.014,1.014,0,0,1-2.028,0V23.338c0-.139-.08-.378-.537-.378a6.587,6.587,0,0,0-4.254,1.849C9.326,26.579,8.69,27.692,8.69,27.931v.159c0,.239.616,1.352,2.485,3.121a6.469,6.469,0,0,0,4.254,1.849c.457,0,.537-.239.537-.378V31.191a1.014,1.014,0,1,1,2.028,0v9.2h9.2a1.014,1.014,0,0,1,0,2.028H25.687c-.139,0-.378.08-.378.537a6.587,6.587,0,0,0,1.849,4.254c1.769,1.849,2.883,2.485,3.121,2.485h.159c.239,0,1.352-.616,3.121-2.485a6.469,6.469,0,0,0,1.849-4.254c0-.457-.239-.537-.378-.537H33.54a1.014,1.014,0,0,1,0-2.028h9.2v-9.2a1.014,1.014,0,1,1,2.028,0V32.7c0,.139.08.378.537.378a6.587,6.587,0,0,0,4.254-1.849c1.829-1.789,2.465-2.9,2.465-3.141ZM28.013,10.238a3.069,3.069,0,0,1,2.346-1.57h.04a3.1,3.1,0,0,1,2.326,1.59l.06.1s-.855-.616-2.405.636l-.02.02-.02-.02c-1.551-1.272-2.405-.636-2.405-.636ZM12.586,30.376a3.069,3.069,0,0,1-1.57-2.346v-.04a3.1,3.1,0,0,1,1.59-2.326l.1-.06s-.616.855.636,2.405l.02.02-.02.02c-1.272,1.551-.636,2.405-.636,2.405ZM32.724,45.783a3.069,3.069,0,0,1-2.346,1.57h-.04a3.1,3.1,0,0,1-2.326-1.59l-.06-.1s.855.616,2.405-.636l.02-.02.02.02c1.551,1.272,2.405.636,2.405.636Zm14-14.453-.417.119-.1-.417a2.5,2.5,0,0,0-4.95.537v7.375H33.878a2.493,2.493,0,0,0-.517,4.93l.417.1-.119.417a1.284,1.284,0,0,1-1.252.895h-.04a2.93,2.93,0,0,1-2.028-1.034,2.93,2.93,0,0,1-2.028,1.034h-.04a1.262,1.262,0,0,1-1.252-.895l-.119-.417.417-.1a2.493,2.493,0,0,0-.537-4.93H19.445V31.569a2.5,2.5,0,0,0-2.485-2.5,2.528,2.528,0,0,0-2.445,1.968l-.1.417L14,31.33a1.257,1.257,0,0,1-.895-1.292,2.93,2.93,0,0,1,1.034-2.028A2.93,2.93,0,0,1,13.1,25.982,1.257,1.257,0,0,1,14,24.69l.417-.119.1.417a2.5,2.5,0,0,0,4.95-.537V17.1H26.84a2.5,2.5,0,0,0,2.5-2.485,2.528,2.528,0,0,0-1.968-2.445l-.417-.1.119-.417a1.284,1.284,0,0,1,1.252-.895h.04A2.93,2.93,0,0,1,30.4,11.788a2.93,2.93,0,0,1,2.028-1.034h.04a1.262,1.262,0,0,1,1.252.895l.119.417-.417.1a2.493,2.493,0,0,0,.537,4.93h7.375v7.375a2.5,2.5,0,0,0,2.485,2.5,2.528,2.528,0,0,0,2.445-1.968l.1-.417.417.119A1.257,1.257,0,0,1,47.674,26,2.93,2.93,0,0,1,46.64,28.03a2.93,2.93,0,0,1,1.034,2.028,1.353,1.353,0,0,1-.954,1.272ZM49.7,28.05a3.1,3.1,0,0,1-1.59,2.326l-.1.06s.616-.855-.636-2.405l-.02-.02.02-.02c1.272-1.551.636-2.405.636-2.405l.119.08A3.069,3.069,0,0,1,49.7,28.01Z" transform="translate(-8.69 789.962)" fill="#044468"/>
          <path id="Path_13" data-name="Path 13" d="M117.261,120.014a4.813,4.813,0,0,1,.139,1.074,4.493,4.493,0,1,1-8.986,0,4.675,4.675,0,0,1,.119-1.073,4.871,4.871,0,1,0,9.244,2.147A5.1,5.1,0,0,0,117.261,120.014Z" transform="translate(-91.218 695.533)" fill="#044468"/>
          <path id="Path_14" data-name="Path 14" d="M122.134,110.652l-.636,2.008,1.71-1.233,1.73,1.233-.656-2.008,1.61-1.173H123.9l-.716-2.147-.676,2.147h-2.028Z" transform="translate(-101.559 706.068)" fill="#044468"/>
        </g>
        <g id="Mauribac" transform="translate(193.567 20)">
          <path id="Path_15" data-name="Path 15" d="M1570.387,650.48a.845.845,0,0,0-.463.209.549.549,0,0,0-.172.329l.025,3.983a1,1,0,0,0-.623.986,1.114,1.114,0,0,0,.606.768c-.14.426-.274.768-.365.99a9.326,9.326,0,0,0-.671,2.287c-.012.108-.029.316.119.4.175.1.479-.034.666-.1a2.168,2.168,0,0,1,.884-.082c.53.047.974-.323.9-.746a.02.02,0,0,0,0-.01,15.112,15.112,0,0,0-.76-2.725,1.1,1.1,0,0,0,.632-.818,1,1,0,0,0-.68-.936Q1570.435,652.75,1570.387,650.48Z" transform="translate(-1533.839 -644.12)" fill="#044468"/>
          <path id="Path_16" data-name="Path 16" d="M555.27,730.376l9.767,2.378a1.131,1.131,0,0,0,.545,0l9.336-2.361a1.132,1.132,0,0,1,1.409,1.1v3.884a1.132,1.132,0,0,1-.476.922,18.426,18.426,0,0,1-21.5,0,1.133,1.133,0,0,1-.478-.925v-3.9a1.132,1.132,0,0,1,1.4-1.1Z" transform="translate(-544.985 -721.938)" fill="#044468"/>
          <path id="Path_17" data-name="Path 17" d="M207.337,406.131l19.9-3.968a.42.42,0,0,1,.164,0l19.878,3.968a.42.42,0,0,1,.021.82l-19.878,5.027a.418.418,0,0,1-.2,0l-19.905-5.028A.42.42,0,0,1,207.337,406.131Z" transform="translate(-206.999 -402.155)" fill="#044468"/>
          <path id="Path_18" data-name="Path 18" d="M245.569,1141.574l-12.215,1.178a2.389,2.389,0,0,1-.833.049,2.513,2.513,0,0,1-1.223-.515,4.169,4.169,0,0,1-1.309-3.03,3.9,3.9,0,0,1,.761-2.8,2.071,2.071,0,0,1,1.365-.84,2.009,2.009,0,0,1,1.611.737,2.307,2.307,0,0,1,.454,1.635,1.669,1.669,0,0,1-.44,1.312,1.123,1.123,0,0,1-.832.272c-.744-.1-1.019-1.117-1.048-1.229a1.969,1.969,0,0,1-.048-.7l-.551-.087c-.065.235-.155.589-.233,1.028a4.013,4.013,0,0,0-.1,1.831,2.278,2.278,0,0,0,.884,1.276,2.385,2.385,0,0,0,1.579.29c1.409-.157,5.812-.573,11.8-1.187a1.038,1.038,0,0,0,.758-.272,1.058,1.058,0,0,0,.235-.745,12.472,12.472,0,0,0-.282-2.738c-.333-1.4-.531-1.691-.823-1.87a1.388,1.388,0,0,0-.675-.191c-.42-.013-1.137-.039-2.026-.085-2.983-.156-4.319-.36-7.206-.526-.621-.036-1.592-.086-2.8-.121a2.346,2.346,0,0,0-.863.019,2.84,2.84,0,0,0-1.661,1.213,4.706,4.706,0,0,0-.779,2.147,7.433,7.433,0,0,0,.015,3.185,3.917,3.917,0,0,0,1.247,2.421,3.465,3.465,0,0,0,1.238.574,5.644,5.644,0,0,0,2.114.124c1.064-.077,1.7-.191,2.44-.294,1.578-.219,2.825-.274,3.422-.3.455-.019.4-.007,3.3-.06l1.072-.02a1.57,1.57,0,0,0,1.322-.512A1.526,1.526,0,0,0,245.569,1141.574Z" transform="translate(-228.345 -1115.463)" fill="#044468"/>
          <path id="Path_19" data-name="Path 19" d="M922.142,1164l3.776.023a.842.842,0,0,1,.767.507,9.1,9.1,0,0,1,.158,6.893.839.839,0,0,1-.781.538l-3.77.018a.841.841,0,0,1-.817-1.058,10.288,10.288,0,0,0-.139-5.823.841.841,0,0,1,.806-1.1Z" transform="translate(-903.001 -1144.486)" fill="#044468"/>
          <path id="Path_20" data-name="Path 20" d="M946.789,1499.5l3.8-.1a.371.371,0,0,1,.056,0,1.039,1.039,0,0,1,.474.188,1.486,1.486,0,0,1,.479.786,4.824,4.824,0,0,1,.19.692.319.319,0,0,1-.473.324l-1.847-.973a.33.33,0,0,0-.442.125l-.666,1.21a.329.329,0,0,1-.586-.034,4.359,4.359,0,0,0-.675-1.162,4.127,4.127,0,0,0-.517-.529A.3.3,0,0,1,946.789,1499.5Z" transform="translate(-927.535 -1471.291)" fill="#044468"/>
          <path id="Path_21" data-name="Path 21" d="M1186.971,1431.136a3.624,3.624,0,0,1-1.127.66,4.142,4.142,0,0,1-2.143.109c-.523-.08-1.586-.173-3.714-.359-.733-.064-.92-.055-2.167-.09-.224-.007-.83-.024-2.042-.069-.552-.02-1.346-.051-2.318-.1a.731.731,0,0,1-.687-.572.751.751,0,0,1,.776-.791c.858.053,1.966.126,3.256.223,2.748.2,4.8.4,5.281.451C1183.461,1430.736,1185.107,1430.91,1186.971,1431.136Z" transform="translate(-1148.031 -1403.605)" fill="#044468"/>
          <path id="Path_22" data-name="Path 22" d="M1164.35,1129.2c6.157-.632,10.746-.931,12.313-.871a3.079,3.079,0,0,1,1.65.488,3.4,3.4,0,0,1,1.219,1.8,7.167,7.167,0,0,1,.351,2.9,12.962,12.962,0,0,1-.247,2.264,1.028,1.028,0,0,1-.493.6,1.188,1.188,0,0,1-.724.019c-.43-.068-.871-.053-1.3-.128-.167-.029-1.15-.114-3.118-.282-1.519-.131-4.229-.347-7.7-.594a1.348,1.348,0,0,1-.687-.294c-.67-.573-.394-1.692-.466-2.953A7.733,7.733,0,0,0,1164.35,1129.2Z" transform="translate(-1139.829 -1109.725)" fill="#044468"/>
        </g>
      </g>
    </g>
  </g>
</svg>
