<svg class="w-8 h-8 rounded-full border_ border-teal-500 text-gray-700 stroke-current" xmlns="http://www.w3.org/2000/svg" viewBox="0 0 256 256" version="1.1"><g transform="translate(0,-796.36216)"><g transform="translate(-273.42857,303.42853)"><g transform="matrix(1.1743119,0,0,1.1743119,264.73866,486.53363)"><path d="m76.1 74.1 0 80.6 80.6 0 0-80.6-80.6 0zm73.3 73.3-66 0 0-66 66 0 0 66zM225.4 114.8l0-0.8c0-1.2-3.1-6.8-12.5-15.7-9.5-9.1-20.2-9.3-21.4-9.3-2.3 0-2.7 1.2-2.7 1.9l0 7.5c0 2.8-2.3 5.1-5.1 5.1-2.8 0-5.1-2.3-5.1-5.1l0-46.2-46.3 0c-2.8 0-5.1-2.3-5.1-5.1 0-2.8 2.3-5.1 5.1-5.1l7.6 0c0.7 0 1.9-0.4 1.9-2.7 0-1.2-0.3-11.9-9.3-21.4C123.6 8.6 118 5.4 116.8 5.4l-0.8 0c-1.2 0-6.8 3.1-15.7 12.5-9.1 9.5-9.3 20.2-9.3 21.4 0 1.8 0.7 2.3 1 2.4 0.4 0.3 0.9 0.3 0.9 0.3l7.6 0c2.8 0 5.1 2.3 5.1 5.1 0 2.8-2.3 5.1-5.1 5.1l-46.3 0 0 46.3c0 2.8-2.3 5.1-5.1 5.1-2.8 0-5.1-2.3-5.1-5.1l0-7.6C44 90.2 43.6 89 41.3 89 40.1 89 29.4 89.3 19.9 98.3 10.6 107.2 7.4 112.8 7.4 114l0 0.8c0 1.2 3.1 6.8 12.5 15.7 9.5 9.1 20.2 9.3 21.4 9.3 2.3 0 2.7-1.2 2.7-1.9l0-7.5c0-2.8 2.3-5.1 5.1-5.1 2.8 0 5.1 2.3 5.1 5.1l0 46.3 46.3 0c2.8 0 5.1 2.3 5.1 5.1 0 2.8-2.3 5.1-5.1 5.1l-7.6 0c-0.7 0-1.9 0.4-1.9 2.7 0 1.2 0.3 11.9 9.3 21.4 8.9 9.3 14.5 12.5 15.7 12.5l0.8 0c1.2 0 6.8-3.1 15.7-12.5 9.1-9.5 9.3-20.2 9.3-21.4 0-2.3-1.2-2.7-1.9-2.7l-7.5 0c-2.8 0-5.1-2.3-5.1-5.1 0-2.8 2.3-5.1 5.1-5.1l46.3 0 0-46.3c0-2.8 2.3-5.1 5.1-5.1 2.8 0 5.1 2.3 5.1 5.1l0 7.6c0 0.7 0.4 1.9 2.7 1.9 1.2 0 11.9-0.3 21.4-9.3 9.2-9 12.4-14.6 12.4-15.8zM104.6 25c2.1-3.6 5.8-7.2 11.8-7.9l0.2 0c6 0.8 9.6 4.4 11.7 8l0.3 0.5c0 0-4.3-3.1-12.1 3.2l-0.1 0.1-0.1-0.1c-7.8-6.4-12.1-3.2-12.1-3.2L104.6 25ZM27 126.3c-3.6-2.1-7.2-5.8-7.9-11.8l0-0.2c0.8-6 4.4-9.6 8-11.7l0.5-0.3c0 0-3.1 4.3 3.2 12.1l0.1 0.1-0.1 0.1c-6.4 7.8-3.2 12.1-3.2 12.1L27 126.3Zm101.3 77.5c-2.1 3.6-5.8 7.2-11.8 7.9l-0.2 0c-6-0.8-9.6-4.4-11.7-8l-0.3-0.5c0 0 4.3 3.1 12.1-3.2l0.1-0.1 0.1 0.1c7.8 6.4 12.1 3.2 12.1 3.2l-0.4 0.6zm70.4-72.7-2.1 0.6-0.5-2.1c-1.2-5.7-6.4-9.9-12.3-9.9-6.9 0-12.6 5.6-12.6 12.6l0 37.1-37.1 0c-6.9 0-12.5 5.6-12.5 12.5 0 5.9 4.1 11 9.9 12.3l2.1 0.5-0.6 2.1c-0.4 1.5-2.3 4.5-6.3 4.5l-0.2 0c-3.4-0.1-7.7-2.1-10.2-5.2-2.5 3.1-6.8 5.1-10.2 5.2l-0.2 0c-4 0-5.9-2.9-6.3-4.5l-0.6-2.1 2.1-0.5c5.7-1.2 9.9-6.4 9.9-12.3 0-6.9-5.6-12.5-12.6-12.5l-36.9 0 0-37.1c0-6.9-5.6-12.6-12.5-12.6-5.9 0-11 4.2-12.3 9.9l-0.5 2.1-2.1-0.6c-1.6-0.4-4.6-2.3-4.5-6.5 0.1-3.4 2.1-7.7 5.2-10.2-3.1-2.5-5.1-6.8-5.2-10.2-0.1-4.2 2.9-6.1 4.5-6.5l2.1-0.6 0.5 2.1c1.2 5.7 6.4 9.9 12.3 9.9 6.9 0 12.6-5.6 12.6-12.6l0-37 37.1 0c6.9 0 12.6-5.6 12.6-12.5 0-5.9-4.2-11-9.9-12.3l-2.1-0.5 0.6-2.1c0.4-1.5 2.3-4.5 6.3-4.5l0.2 0c3.4 0.1 7.7 2.1 10.2 5.2 2.5-3.1 6.8-5.1 10.2-5.2l0.2 0c4 0 5.9 2.9 6.3 4.5l0.6 2.1-2.1 0.5c-5.7 1.2-9.9 6.4-9.9 12.3 0 6.9 5.6 12.5 12.6 12.5l37.1 0 0 37.1c0 6.9 5.6 12.6 12.5 12.6 5.9 0 11-4.2 12.3-9.9l0.5-2.1 2.1 0.6c1.6 0.4 4.6 2.3 4.5 6.5-0.1 3.4-2.1 7.7-5.2 10.2 3.1 2.5 5.1 6.8 5.2 10.2-0.2 4.1-3.2 6-4.8 6.4zm15-16.5c-0.8 6-4.4 9.6-8 11.7l-0.5 0.3c0 0 3.1-4.3-3.2-12.1l-0.1-0.1 0.1-0.1c6.4-7.8 3.2-12.1 3.2-12.1l0.6 0.4c3.6 2.1 7.2 5.8 7.9 11.8l0 0.2z"></path><path d="m138.4 102.2c0.4 1.7 0.7 3.6 0.7 5.4 0 12.5-10.1 22.7-22.6 22.7-12.5 0-22.6-10.2-22.6-22.7 0-1.9 0.2-3.7 0.6-5.4-1.6 3.3-2.5 6.9-2.5 10.8 0 13.5 11 24.5 24.5 24.5 13.5 0 24.5-11 24.5-24.5-0.1-3.9-1-7.6-2.6-10.8z"></path><polygon points="110.9 108.1 107.7 118.2 116.3 112 125 118.2 121.7 108.1 129.8 102.2 119.8 102.2 116.2 91.4 112.8 102.2 102.6 102.2 "></polygon></g></g></g></svg>