<svg xmlns="http://www.w3.org/2000/svg" width="42.505" height="30.117" viewBox="0 0 42.505 30.117">
  <g id="Fast_Forward" data-name="Fast Forward" transform="translate(0 -6.194)">
    <path id="Path" d="M21.252,27.455V15.15a2.637,2.637,0,0,1-1.025,2L4.288,29.553a2.615,2.615,0,0,1-1.618.564h0A2.672,2.672,0,0,1,0,27.455V2.662A2.672,2.672,0,0,1,2.668,0,2.616,2.616,0,0,1,4.288.564l15.939,12.4a2.638,2.638,0,0,1,1.025,2.006V2.662A2.672,2.672,0,0,1,23.921,0a2.615,2.615,0,0,1,1.618.564l15.939,12.4a2.655,2.655,0,0,1,0,4.194l-15.939,12.4a2.615,2.615,0,0,1-1.618.564A2.672,2.672,0,0,1,21.252,27.455Zm5.312-5.434,8.955-6.962L26.564,8.094Zm-21.252,0,8.955-6.962L5.312,8.094Z" transform="translate(0 6.194)" fill="#044468"/>
  </g>
</svg>
