<svg id="Google" xmlns="http://www.w3.org/2000/svg" width="40.804" height="42.504" viewBox="0 0 40.804 42.504">
  <path id="Path" d="M20.827,42.5A19.706,19.706,0,0,0,34.6,37.361C38.551,33.621,40.8,28.18,40.8,21.72a18.715,18.715,0,0,0-.425-4.335H20.827v7.863H32.3a10.487,10.487,0,0,1-4.25,6.886,12.062,12.062,0,0,1-7.226,2.125,12.555,12.555,0,0,1-11.859-8.8,13.358,13.358,0,0,1,0-8.416A12.54,12.54,0,0,1,20.827,8.2a11.321,11.321,0,0,1,8.033,3.188l5.866-5.866A19.588,19.588,0,0,0,20.827,0,20.8,20.8,0,0,0,2.21,11.689a21.7,21.7,0,0,0,0,19.084A20.714,20.714,0,0,0,20.827,42.5Z" fill="#044468"/>
</svg>
