<svg id="Home" xmlns="http://www.w3.org/2000/svg" width="43" height="43" viewBox="0 0 43 43">
  <path id="Path" d="M38.521,43H30.458a4.485,4.485,0,0,1-4.479-4.48v-4.48a4.479,4.479,0,1,0-8.957,0v4.48A4.485,4.485,0,0,1,12.542,43H4.479A4.485,4.485,0,0,1,0,38.52V19.587a9.863,9.863,0,0,1,4.2-8.072L19.959.485a2.69,2.69,0,0,1,3.081,0L38.8,11.514A9.858,9.858,0,0,1,43,19.587V38.52A4.485,4.485,0,0,1,38.521,43ZM21.5,24.187a9.865,9.865,0,0,1,9.854,9.854v3.583h6.271V19.587a4.463,4.463,0,0,0-1.643-3.467l-.268-.2L21.5,5.966,7.285,15.918a4.485,4.485,0,0,0-1.911,3.668V37.624h6.271V34.041A9.854,9.854,0,0,1,21.1,24.2Z" transform="translate(0 0)" fill="#044468"/>
</svg>
