<svg id="Image" xmlns="http://www.w3.org/2000/svg" width="43" height="43" viewBox="0 0 43 43">
  <rect id="BG" width="43" height="43" transform="translate(0 0)" fill="#044468" opacity="0"/>
  <g id="Image-2" data-name="Image" transform="translate(0 2.657)">
    <path id="Path" d="M39.854,23.908H2.662a2.656,2.656,0,0,1-2.209-4.13L9.75,5.832a2.657,2.657,0,0,1,4.064-.43L18.4,9.869,25.862.951a2.658,2.658,0,0,1,4.273.268l11.954,18.6a2.657,2.657,0,0,1-2.235,4.093ZM12.4,11.439h0L7.627,18.6H34.987L27.618,7.131,20.64,15.478a2.656,2.656,0,0,1-3.891.2L12.4,11.439Z" transform="translate(0 13.283)" fill="#044468"/>
    <path id="Path-2" data-name="Path" d="M7.083,14.168a7.084,7.084,0,1,1,7.085-7.085A7.092,7.092,0,0,1,7.083,14.168Zm0-8.856A1.772,1.772,0,1,0,8.856,7.083,1.773,1.773,0,0,0,7.083,5.312Z" transform="translate(6.205 0)" fill="#044468"/>
  </g>
</svg>
