<svg xmlns="http://www.w3.org/2000/svg" width="44" height="44" viewBox="0 0 44 44">
  <g id="Instagram" transform="translate(0.5 0.5)">
    <path id="Subtraction_3" data-name="Subtraction 3" d="M21.5,43c-5.452,0-6.442-.038-8.416-.112l-.442-.017a16.785,16.785,0,0,1-5.2-.99,11.064,11.064,0,0,1-6.32-6.321,17.074,17.074,0,0,1-.989-5.2l-.016-.425C.038,27.963,0,26.974,0,21.5s.038-6.462.113-8.432l.016-.425A15.812,15.812,0,0,1,1.118,7.4,10.175,10.175,0,0,1,3.612,3.612,10.681,10.681,0,0,1,7.438,1.119a15.662,15.662,0,0,1,5.2-.99C14.92,0,15.669,0,21.5,0s6.581,0,8.859.129a16.028,16.028,0,0,1,5.245.99,10.9,10.9,0,0,1,3.785,2.493A10.182,10.182,0,0,1,41.881,7.4a15.838,15.838,0,0,1,.99,5.246l.017.425c.075,1.97.113,2.96.113,8.432s-.038,6.463-.113,8.434l-.017.425a15.725,15.725,0,0,1-.99,5.2,10.709,10.709,0,0,1-2.493,3.828A10.9,10.9,0,0,1,35.6,41.881a17.193,17.193,0,0,1-5.245.99l-.44.017C27.943,42.962,26.953,43,21.5,43ZM19.564,3.87c-4.044,0-4.773,0-6.75.129a11.629,11.629,0,0,0-4,.73A6.726,6.726,0,0,0,6.364,6.321,6.629,6.629,0,0,0,4.729,8.816a11.263,11.263,0,0,0-.73,4l-.017.455c-.075,1.914-.112,2.875-.112,8.229,0,5.3.037,6.271.111,8.2L4,30.186a11.733,11.733,0,0,0,.73,3.956,6.48,6.48,0,0,0,1.635,2.494,6.557,6.557,0,0,0,2.451,1.592,12.562,12.562,0,0,0,4,.774l.471.018c1.938.074,2.91.111,8.213.111s6.271-.037,8.18-.11L30.186,39a12.43,12.43,0,0,0,4-.774,6.755,6.755,0,0,0,2.451-1.592,6.143,6.143,0,0,0,1.633-2.494A11.694,11.694,0,0,0,39,30.186l.019-.486c.073-1.93.11-2.9.11-8.2,0-5.356-.037-6.317-.111-8.23L39,12.814a11.219,11.219,0,0,0-.732-4,6.78,6.78,0,0,0-1.633-2.495A6.757,6.757,0,0,0,34.185,4.73a11.652,11.652,0,0,0-4-.73C27.907,3.87,27.3,3.87,21.5,3.87Z" transform="translate(0 0)" fill="#044468" stroke="rgba(0,0,0,0)" stroke-miterlimit="10" stroke-width="1"/>
    <path id="Path" d="M2.55,0A2.55,2.55,0,1,1,0,2.55,2.558,2.558,0,0,1,2.55,0Z" transform="translate(30.05 7.354)" fill="#044468"/>
    <path id="Subtraction_4" data-name="Subtraction 4" d="M10.923,21.848A10.924,10.924,0,1,1,21.848,10.925,10.935,10.935,0,0,1,10.923,21.848Zm0-18.022a7.077,7.077,0,1,0,7.1,7.1A7.107,7.107,0,0,0,10.923,3.826Z" transform="translate(10.329 10.328)" fill="#044468" stroke="rgba(0,0,0,0)" stroke-miterlimit="10" stroke-width="1"/>
  </g>
</svg>
