<svg xmlns="http://www.w3.org/2000/svg" width="43" height="43.504" viewBox="0 0 43 43.504">
  <g id="Map" transform="translate(0 0.5)">
    <rect id="BG" width="43" height="43" transform="translate(0 0)" fill="#044468" opacity="0"/>
    <g id="Group_11" data-name="Group 11" transform="translate(4.428 0)">
      <path id="Subtraction_1" data-name="Subtraction 1" d="M16.825,42.5a2.648,2.648,0,0,1-2.027-.94L13.344,39.87l-2.359-2.718L10.857,37l-.024-.029c-.126-.146-.251-.29-.374-.434L9.454,35.356l-.947-1.135-.889-1.089-.833-1.045-.778-1.006-.724-.969-.671-.937-.62-.906C1.156,24.014,0,20.584,0,16.432A16.067,16.067,0,0,1,5.035,4.712a17.1,17.1,0,0,1,23.578,0,16.067,16.067,0,0,1,5.036,11.716c0,5.524-2.306,10.365-8.508,17.861l-1.05,1.25q-.2.236-.4.473l-.146.171-4.335,4.966-.367.427A2.651,2.651,0,0,1,16.825,42.5Zm0-37.19A11.332,11.332,0,0,0,5.314,16.432c0,2.91.887,5.456,3.062,8.786l.532.794q.064.09.127.182l.031.044.127.182.608.843.66.879.711.916.767.96.821,1,.876,1.052,1.427,1.672,1.774,2.043,1.211-1.381L19.5,32.741l1.009-1.187.942-1.138c4.958-6.081,6.889-10,6.889-13.983A11.332,11.332,0,0,0,16.825,5.314Z" fill="#044468" stroke="rgba(0,0,0,0)" stroke-miterlimit="10" stroke-width="1"/>
      <path id="Subtraction_2" data-name="Subtraction 2" d="M7.083,14.168a7.084,7.084,0,1,1,7.083-7.085A7.092,7.092,0,0,1,7.083,14.168Zm0-8.855A1.772,1.772,0,1,0,8.854,7.083,1.773,1.773,0,0,0,7.083,5.313Z" transform="translate(9.742 9.741)" fill="#044468" stroke="rgba(0,0,0,0)" stroke-miterlimit="10" stroke-width="1"/>
    </g>
  </g>
</svg>
