<svg id="Menu" xmlns="http://www.w3.org/2000/svg" width="43" height="43" viewBox="0 0 43 43">
  <rect id="BG" width="43" height="43" transform="translate(0 0)" fill="#044468" opacity="0"/>
  <path id="Shape" d="M2.657,30.107a2.657,2.657,0,0,1-.257-5.3l.257-.011H30.992a2.656,2.656,0,0,1,.257,5.3l-.257.013Zm0-12.4a2.657,2.657,0,0,1-.257-5.3l.257-.011H30.992a2.656,2.656,0,0,1,.257,5.3l-.257.013Zm0-12.4A2.656,2.656,0,0,1,2.4.013L2.657,0H30.992a2.657,2.657,0,0,1,.257,5.3l-.257.011Z" transform="translate(4.428 6.199)" fill="#044468"/>
</svg>
