<svg xmlns="http://www.w3.org/2000/svg" width="30.107" height="42.505" viewBox="0 0 30.107 42.505">
  <g id="Mic" transform="translate(-6.199)">
    <path id="Combined_Shape" data-name="Combined Shape" d="M7.97,42.5a2.657,2.657,0,0,1-.257-5.3l.257-.013H12.4V34.3A15.056,15.056,0,0,1,.01,20.024L0,19.481V15.939a2.657,2.657,0,0,1,5.3-.257l.011.257v3.542a9.741,9.741,0,0,0,19.47.483l.013-.483V15.939a2.656,2.656,0,0,1,5.3-.257l.013.257v3.542A15.055,15.055,0,0,1,17.71,34.3v2.892h4.428a2.657,2.657,0,0,1,.255,5.3l-.255.013ZM9.38,25.013a8.258,8.258,0,0,1-2.3-5.754V8.191a8.264,8.264,0,0,1,2.3-5.754,7.821,7.821,0,0,1,11.345,0,8.257,8.257,0,0,1,2.3,5.754V19.259a8.251,8.251,0,0,1-2.3,5.754,7.821,7.821,0,0,1-11.345,0Zm3.832-18.9A3.019,3.019,0,0,0,12.4,8.191V19.259a3.019,3.019,0,0,0,.816,2.074,2.508,2.508,0,0,0,3.682,0,3.011,3.011,0,0,0,.816-2.074V8.191a3.011,3.011,0,0,0-.816-2.074,2.508,2.508,0,0,0-3.682,0Z" transform="translate(6.199)" fill="#044468"/>
  </g>
</svg>
