<svg xmlns="http://www.w3.org/2000/svg" width="39" height="43" viewBox="0 0 39 43">
  <g id="Music" transform="translate(-2 0)">
    <path id="Path" d="M0,35.183a7.775,7.775,0,0,1,7.711-7.819,7.582,7.582,0,0,1,2.393.386V7.819a2.683,2.683,0,0,1,1.86-2.562l.239-.064L35.78.061a2.665,2.665,0,0,1,3.208,2.386l.01.24V12.03q0,.068,0,.136V28.191c0,.051,0,.1,0,.152a7.712,7.712,0,1,1-7.712-7.819,7.584,7.584,0,0,1,2.393.385V15.423L15.423,19.4V35.183A7.774,7.774,0,0,1,7.711,43,7.772,7.772,0,0,1,0,35.183Zm5.318,0a2.394,2.394,0,1,0,2.393-2.445A2.421,2.421,0,0,0,5.318,35.183Zm23.577-6.84A2.394,2.394,0,1,0,31.288,25.9,2.422,2.422,0,0,0,28.895,28.343ZM15.423,9.989V13.9L33.681,9.924V6.016Z" transform="translate(2 0)" fill="#044468"/>
  </g>
</svg>
