<svg xmlns="http://www.w3.org/2000/svg" width="42.505" height="32.863" viewBox="0 0 42.505 32.863">
  <g id="Next_Arrow" data-name="Next Arrow" transform="translate(0 -4.822)">
    <path id="Path" d="M24.194,32.086l-.182-.2a2.656,2.656,0,0,1,.182-3.554l9.24-9.24H2.657L2.4,19.076a2.657,2.657,0,0,1,.257-5.3H33.434l-9.24-9.24-.182-.2A2.657,2.657,0,0,1,27.951.778L41.727,14.554l.182.2a2.658,2.658,0,0,1-.182,3.556L27.951,32.086l-.2.182a2.658,2.658,0,0,1-3.556-.182Z" transform="translate(0 4.821)" fill="#044468"/>
  </g>
</svg>
