<svg xmlns="http://www.w3.org/2000/svg" width="43" height="43" viewBox="0 0 43 43">
  <g id="Pencil" transform="translate(0)">
    <path id="Path" d="M2.716,43A2.726,2.726,0,0,1,.054,39.74L2.623,26.895A2.709,2.709,0,0,1,3.368,25.5L28.074.8a2.723,2.723,0,0,1,3.852,0L42.2,11.073a2.728,2.728,0,0,1,0,3.854L17.5,39.632a2.723,2.723,0,0,1-1.392.745L3.26,42.946A2.783,2.783,0,0,1,2.716,43ZM30,6.577h0L7.8,28.772,6.2,36.8l8.027-1.606L36.422,13,30,6.577Z" transform="translate(0 0)" fill="#044468"/>
  </g>
</svg>
