<svg xmlns="http://www.w3.org/2000/svg" width="42.505" height="30.992" viewBox="0 0 42.505 30.992">
  <g id="Playlist" transform="translate(0 -2.656)">
    <path id="Path" d="M29.234,28.591l-.013-.255V23.022H23.909a2.656,2.656,0,0,1-.257-5.3l.257-.013h5.312V12.4a2.657,2.657,0,0,1,5.3-.257l.013.257V17.71h5.312a2.657,2.657,0,0,1,.257,5.3l-.257.011H34.535v5.314a2.657,2.657,0,0,1-5.3.255ZM2.657,23.022a2.656,2.656,0,0,1-.257-5.3l.257-.013H15.939a2.657,2.657,0,0,1,.257,5.3l-.257.011Zm0-8.854a2.657,2.657,0,0,1-.257-5.3l.257-.011H23.909a2.656,2.656,0,0,1,.257,5.3l-.257.013Zm0-8.856A2.656,2.656,0,0,1,2.4.013L2.657,0H23.909a2.657,2.657,0,0,1,.257,5.3l-.257.011Z" transform="translate(0 2.657)" fill="#044468"/>
  </g>
</svg>
