<svg xmlns="http://www.w3.org/2000/svg" width="43" height="39" viewBox="0 0 43 39">
  <g id="Refresh" transform="translate(0 -2)">
    <path id="Path" d="M17.178,38.267a18.825,18.825,0,0,1-7.54-4.21L9.16,33.6,5.374,30.08v4.491a2.688,2.688,0,0,1-5.361.257L0,34.571,0,23.846l.011-.169.045-.3.063-.239L.2,22.922l.082-.179a2.645,2.645,0,0,1,.271-.429l.174-.2A2.72,2.72,0,0,1,1,21.859L1.2,21.72l.169-.1.332-.158.235-.08.243-.057.1-.018.177-.021.234-.01H13.437a2.658,2.658,0,0,1,.26,5.306l-.26.013H9.468L12.9,29.784a13.539,13.539,0,0,0,18.431.538,13.291,13.291,0,0,0,3.741-5.5A2.7,2.7,0,0,1,38.5,23.2a2.653,2.653,0,0,1,1.637,3.4A18.615,18.615,0,0,1,34.9,34.3a18.974,18.974,0,0,1-17.726,3.969ZM29.562,17.726A2.658,2.658,0,0,1,29.3,12.42l.258-.013h3.967L30.1,9.217a13.538,13.538,0,0,0-18.431-.539,13.271,13.271,0,0,0-3.741,5.5A2.7,2.7,0,0,1,4.5,15.8a2.654,2.654,0,0,1-1.637-3.394A18.613,18.613,0,0,1,8.1,4.7a18.955,18.955,0,0,1,25.266.239l.477.456,3.784,3.519V4.428a2.689,2.689,0,0,1,5.363-.255L43,4.428V15.067l-.006.184-.032.268-.055.246-.061.19-.1.243-.029.061a2.73,2.73,0,0,1-.271.426l-.174.2-.14.137-.271.217-.266.163-.239.113-.289.1-.29.067-.164.022-.3.016Z" transform="translate(0 2)" fill="#044468"/>
  </g>
</svg>
