<svg xmlns="http://www.w3.org/2000/svg" width="37.191" height="42.504" viewBox="0 0 37.191 42.504">
  <g id="Repeat" transform="translate(-2.656)">
    <path id="Path" d="M8.064,41.909l-.2-.182L.69,34.55l-.116-.137-.129-.177-.089-.143-.064-.116a2.65,2.65,0,0,1-.242-1.72l.029-.137a2.7,2.7,0,0,1,.214-.567l.128-.222.061-.089.153-.2.145-.158L7.863,23.8A2.656,2.656,0,0,1,11.8,27.356l-.182.2L9.068,30.107H27.451a4.429,4.429,0,0,0,4.414-4.077l.014-.351a2.656,2.656,0,1,1,5.312,0,9.743,9.743,0,0,1-9.257,9.729l-.483.011H9.07l2.55,2.549a2.657,2.657,0,0,1-3.556,3.94ZM25.573,18.7a2.656,2.656,0,0,1-.183-3.554l.183-.2L28.12,12.4H9.741a4.426,4.426,0,0,0-4.414,4.077l-.014.351a2.656,2.656,0,0,1-5.312,0A9.74,9.74,0,0,1,9.258,7.1l.483-.013H28.122L25.573,4.535a2.656,2.656,0,0,1,3.339-4.1L29.127.6l.2.182,7.083,7.085a2.785,2.785,0,0,1,.206.23l.155.217.126.218a2.668,2.668,0,0,1,0,2.426l-.083.15-.105.161-.151.2-.147.159L29.33,18.7a2.656,2.656,0,0,1-3.757,0Z" transform="translate(2.656 0)" fill="#044468"/>
  </g>
</svg>
