<svg id="Send" xmlns="http://www.w3.org/2000/svg" width="39.983" height="38.976" viewBox="0 0 39.983 38.976">
  <path id="Path" d="M2.652,38.976A2.673,2.673,0,0,1,.488,37.844,2.612,2.612,0,0,1,.149,35.45L5.634,19.488.149,3.527A2.612,2.612,0,0,1,.488,1.132,2.673,2.673,0,0,1,2.652,0a2.665,2.665,0,0,1,1.1.243L37.381,15.454a4.428,4.428,0,0,1,0,8.068L3.756,38.733A2.664,2.664,0,0,1,2.652,38.976ZM7.172,7.618h0l3.782,11.006a2.663,2.663,0,0,1,0,1.728l-3.782,11L33.406,19.488,7.172,7.618Z" transform="translate(0 0)" fill="#044468"/>
</svg>
