<svg xmlns="http://www.w3.org/2000/svg" width="42.504" height="31.878" viewBox="0 0 42.504 31.878">
  <g id="Share" transform="translate(0 -5.313)">
    <path id="Path" d="M34.535,0a2.657,2.657,0,0,1,.256,5.3l-.256.012H11.265a5.952,5.952,0,0,0-.327,11.9l.327.009h.246a2.657,2.657,0,0,1,.256,5.3l-.256.012h-.246a11.265,11.265,0,0,1-.4-22.523l.4-.007Z" transform="translate(0 14.661)" fill="#044468"/>
    <path id="Path-2" data-name="Path" d="M.778.778A2.657,2.657,0,0,1,4.333.6l.2.182,9.348,9.348a2.657,2.657,0,0,1,.182,3.555l-.182.2L4.535,23.23A2.657,2.657,0,0,1,.6,19.675l.182-.2L8.248,12,.778,4.535A2.657,2.657,0,0,1,.6.98Z" transform="translate(27.843 5.313)" fill="#044468"/>
  </g>
</svg>
