<svg xmlns="http://www.w3.org/2000/svg" width="35.42" height="37.191" viewBox="0 0 35.42 37.191">
  <g id="Shuffle" transform="translate(-3.542 -2.656)">
    <path id="Path" d="M32.7,37.191H22.138a2.656,2.656,0,0,1-.257-5.3l.257-.013H26.35l-6.091-6.09a2.657,2.657,0,0,1,3.556-3.94l.2.182,6.092,6.092V23.909a2.657,2.657,0,0,1,5.3-.257l.011.257V34.5a2.671,2.671,0,0,1-.021.37l0,.015c0,.015,0,.029-.006.044l-.006.04,0,.019-.009.048,0,.01-.01.05v0h0v0l-.011.049,0,.007v0l-.012.048,0,.009v.005l-.013.045,0,.01v0l0,.006-.013.043,0,.009v0l0,.009-.013.039,0,.009h0l0,.014-.012.034,0,.008h0l-.009.025-.009.023,0,.008-.015.037-.005.012v0l0,0-.02.046,0,.007v0l-.023.049v0a2.639,2.639,0,0,1-.275.453l-.01.013-.021.027,0,0-.016.02-.019.023,0,0-.018.021-.005.006-.014.016-.023.026-.006.007-.006.006-.006.007-.025.028,0,0-.041.044,0,0q-.081.083-.17.159l0,0-.046.039-.007.006-.045.036-.007.005-.046.035-.007.005-.05.036,0,0a2.642,2.642,0,0,1-1.26.463h-.013c-.081.007-.163.011-.244.011ZM.778,34.642A2.656,2.656,0,0,1,.6,31.088l.182-.2L26.351,5.313H22.138a2.656,2.656,0,0,1-.257-5.3L22.138,0H32.73a2.671,2.671,0,0,1,.37.021l.02,0L33.16.03,33.2.036l.016,0,.05.009.009,0,.051.01h.009l.051.012h.006l.052.013.01,0h0L33.5.1l.01,0h.007l.042.013.012,0,.01,0,.038.013.01,0,.016.006.032.011.01,0,.027.01.021.008.008,0,.043.018h0L33.8.211l.047.02.008,0,.05.023h0a2.64,2.64,0,0,1,.452.275l.013.01.031.024.022.018.024.019.03.025L34.5.645l.039.034.008.007a2.673,2.673,0,0,1,.268.281h0l.038.047,0,0,.034.044.006.008.031.042.006.009.03.042.005.008.03.045,0,0A2.641,2.641,0,0,1,35.409,2.4v.023q.01.116.01.234V13.282a2.656,2.656,0,0,1-5.3.257l-.013-.257V9.07L4.535,34.642a2.656,2.656,0,0,1-3.757,0Zm9.057-19.3-.2-.182L.778,6.306A2.657,2.657,0,0,1,4.334,2.367l.2.182L13.391,11.4a2.657,2.657,0,0,1-3.556,3.939Z" transform="translate(3.542 2.656)" fill="#044468"/>
  </g>
</svg>
