<svg xmlns="http://www.w3.org/2000/svg" width="43" height="43" viewBox="0 0 43 43">
  <g id="Star" transform="translate(0)">
    <rect id="BG" width="43" height="43" transform="translate(0 0)" fill="#044468" opacity="0"/>
    <path id="Path" d="M9.767,40.74h0a2.681,2.681,0,0,1-1.995-.905,2.593,2.593,0,0,1-.648-2.047l.035-.23L9.438,26.079.857,18.135A2.611,2.611,0,0,1,.1,15.474a2.637,2.637,0,0,1,2.011-1.888l.236-.038,11.6-1.38L18.845,1.544a2.657,2.657,0,0,1,4.826,0l4.893,10.623,11.6,1.38a2.608,2.608,0,0,1,2.174,1.706,2.637,2.637,0,0,1-.515,2.71l-.167.171-8.582,7.944,2.279,11.479a2.6,2.6,0,0,1-.54,2.193,2.7,2.7,0,0,1-2.064.988,2.606,2.606,0,0,1-1.093-.242l-.206-.1-10.2-5.716L11.064,40.394A2.629,2.629,0,0,1,9.767,40.74ZM21.258,28.978a2.636,2.636,0,0,1,1.052.218l.247.121,6.466,3.626-1.446-7.286a2.676,2.676,0,0,1,.609-2.268l.191-.2,5.45-5.048-7.367-.873a2.67,2.67,0,0,1-1.972-1.281l-.128-.244L21.257,9l-3.1,6.741a2.675,2.675,0,0,1-2.1,1.525l-7.367.873,5.45,5.048a2.668,2.668,0,0,1,.84,2.195l-.038.271-1.447,7.286,6.468-3.626A2.667,2.667,0,0,1,21.258,28.978Z" transform="translate(0 0.886)" fill="#044468"/>
  </g>
</svg>
