<svg id="TV" xmlns="http://www.w3.org/2000/svg" width="43" height="43" viewBox="0 0 43 43">
  <path id="Path" d="M9.854,43A9.865,9.865,0,0,1,0,33.146V20.6a9.864,9.864,0,0,1,9.854-9.854H16.8L10.641,4.588A2.688,2.688,0,0,1,14.238.6l.2.184,7.321,7.321a.9.9,0,0,0,1.143.1l.124-.1L30.348.787a2.688,2.688,0,0,1,3.986,3.6l-.184.2-6.163,6.163h5.158A9.864,9.864,0,0,1,43,20.6V33.146A9.865,9.865,0,0,1,33.146,43ZM5.374,20.6V33.146a4.485,4.485,0,0,0,4.479,4.479H33.146a4.485,4.485,0,0,0,4.478-4.479V20.6a4.484,4.484,0,0,0-4.478-4.479H9.854A4.484,4.484,0,0,0,5.374,20.6Z" transform="translate(0 0)" fill="#044468"/>
</svg>
