<svg xmlns="http://www.w3.org/2000/svg" width="30.107" height="42.505" viewBox="0 0 30.107 42.505">
  <g id="User" transform="translate(-6.199)">
    <path id="Combined_Shape" data-name="Combined Shape" d="M24.806,40.1l-.011-.257V30.992a4.428,4.428,0,0,0-4.138-4.417l-.29-.01H9.74A4.427,4.427,0,0,0,5.322,30.7l-.01.29v8.856a2.656,2.656,0,0,1-5.3.257L0,39.848V30.992A9.741,9.741,0,0,1,9.348,21.26l.392-.008H20.367A9.742,9.742,0,0,1,30.1,30.6l.008.391v8.856a2.657,2.657,0,0,1-5.3.257ZM5.312,9.74a9.74,9.74,0,1,1,9.74,9.74A9.752,9.752,0,0,1,5.312,9.74Zm5.312,0a4.428,4.428,0,1,0,4.428-4.428A4.433,4.433,0,0,0,10.625,9.74Z" transform="translate(6.199)" fill="#044468"/>
  </g>
</svg>
