<svg xmlns="http://www.w3.org/2000/svg" id="Capa_1" enable-background="new 0 0 507.769 507.769" height="512"
  viewBox="0 0 507.769 507.769" width="512">
  <g>
    <path
      d="m93.861 507.769h227.636c11.712 0 50.306-82.175 50.306-82.175s71.838-23.652 71.838-35.411v-360.449c.001-16.395-13.338-29.734-29.733-29.734h-320.047c-16.395 0-29.734 13.339-29.734 29.734v448.302c0 16.395 13.339 29.733 29.734 29.733z"
      fill="#edf5fa" />
    <path
      d="m413.642 29.734v358.449c0 3.393-5.988 7.944-14.501 12.701h30c8.512-4.757 14.501-7.308 14.501-10.701v-360.449c0-16.395-13.339-29.734-29.734-29.734h-30c16.395 0 29.734 13.339 29.734 29.734z"
      fill="#d0e7f2" />
    <path
      d="m349.527 494.973 81.029-75.477.191-.185c7.754-7.754 12.234-17.894 12.807-28.762h-92.015c-16.93.081-30.679 13.876-30.679 30.824l-.211 86.343c10.904-.521 21.086-4.998 28.878-12.743z"
      fill="#b7d9eb" />
    <path
      d="m227.948 103.285-84.682 146.673c-11.868 20.556 2.967 46.251 26.703 46.251h169.363c23.736 0 38.571-25.695 26.703-46.251l-84.682-146.673c-11.867-20.556-41.537-20.556-53.405 0l-84.682 146.673c-11.868 20.556 2.967 46.251 26.703 46.251h169.363c23.736 0 38.571-25.695 26.703-46.251l-84.682-146.673c-11.867-20.556-41.537-20.556-53.405 0z"
      fill="#FBBD08" />
    <path
      d="m366.035 249.958-84.682-146.673c-8.897-15.41-27.797-19.267-41.703-11.573 4.644 2.57 8.732 6.427 11.703 11.573l84.682 146.673c11.868 20.556-2.967 46.251-26.703 46.251h30c23.736 0 38.571-25.695 26.703-46.251z"
      fill="#E3B01B" />
    <circle cx="256.233" cy="248.284" fill="#edf5fa" r="18.157" />
    <path
      d="m259.683 204.884h-6.899c-5.702 0-10.324-4.622-10.324-10.324v-38.204c0-5.702 4.622-10.324 10.324-10.324h6.899c5.702 0 10.324 4.622 10.324 10.324v38.204c0 5.702-4.622 10.324-10.324 10.324z"
      fill="#edf5fa" />
    <g fill="#b7d9eb">
      <path
        d="m347.253 350.77h-185.204c-4.142 0-7.5-3.358-7.5-7.5s3.358-7.5 7.5-7.5h185.204c4.142 0 7.5 3.358 7.5 7.5s-3.358 7.5-7.5 7.5z" />
      <path
        d="m242.459 382.77h-80.41c-4.142 0-7.5-3.358-7.5-7.5s3.358-7.5 7.5-7.5h80.41c4.142 0 7.5 3.358 7.5 7.5s-3.358 7.5-7.5 7.5z" />
    </g>
  </g>
</svg>