<svg xmlns="http://www.w3.org/2000/svg" xmlns:xlink="http://www.w3.org/1999/xlink" width="410" height="83" viewBox="0 0 410 83">
  <defs>
    <filter id="Input" x="0" y="0" width="410" height="83" filterUnits="userSpaceOnUse">
      <feOffset dy="3" input="SourceAlpha"/>
      <feGaussianBlur stdDeviation="3" result="blur"/>
      <feFlood flood-color="#044468" flood-opacity="0.161"/>
      <feComposite operator="in" in2="blur"/>
      <feComposite in="SourceGraphic"/>
    </filter>
  </defs>
  <g id="Icons-Input" transform="translate(9 6)">
    <g transform="matrix(1, 0, 0, 1, -9, -6)" filter="url(#Input)">
      <rect id="Input-2" data-name="Input" width="392" height="65" rx="16" transform="translate(9 6)" fill="#fff"/>
    </g>
    <text id="Primitives" transform="translate(332 39)" fill="#688fa4" font-size="20" font-family="Tajawal-Bold, Tajawal" font-weight="700"><tspan x="-122.36" y="0">اختر المسابقة</tspan></text>
    <path id="Rectangle" d="M18.5,24H5.5A5.506,5.506,0,0,1,0,18.5V5.5A5.506,5.506,0,0,1,5.5,0h13A5.506,5.506,0,0,1,24,5.5v13A5.506,5.506,0,0,1,18.5,24ZM5.5,3A2.5,2.5,0,0,0,3,5.5v13A2.5,2.5,0,0,0,5.5,21h13A2.5,2.5,0,0,0,21,18.5V5.5A2.5,2.5,0,0,0,18.5,3Z" transform="translate(344 21)" fill="#688fa4"/>
    <path id="Oval" d="M12.5,24a12.684,12.684,0,0,1-8.838-3.515,11.663,11.663,0,0,1,0-16.971A12.685,12.685,0,0,1,12.5,0a12.686,12.686,0,0,1,8.839,3.515,11.663,11.663,0,0,1,0,16.971A12.686,12.686,0,0,1,12.5,24Zm0-21a9.2,9.2,0,0,0-9.375,9A9.2,9.2,0,0,0,12.5,21a9.2,9.2,0,0,0,9.375-9A9.2,9.2,0,0,0,12.5,3Z" transform="translate(24 21)" fill="#688fa4"/>
  </g>
</svg>
