<svg xmlns="http://www.w3.org/2000/svg" xmlns:xlink="http://www.w3.org/1999/xlink" width="1187" height="1045.1" viewBox="0 0 1187 1045.1">
  <defs>
    <clipPath id="clip-Icons">
      <rect width="1187" height="1045.1"/>
    </clipPath>
  </defs>
  <g id="Icons" clip-path="url(#clip-Icons)">
    <rect width="1187" height="1045.1" fill="#fff"/>
    <g id="Icons-2" data-name="Icons" transform="translate(1232 4669.903)">
      <rect id="Section" width="1187" height="1040.597" transform="translate(-1232 -4668.5)" fill="#f5f7fb"/>
      <g id="Icons-3" data-name="Icons" transform="translate(-30 -250)">
        <g id="Maximize" transform="translate(-647 -3902.713)">
          <path id="Path" d="M27.77,43a2.688,2.688,0,0,1-.258-5.363l.258-.013h7.167A2.688,2.688,0,0,0,37.613,35.2l.011-.258V27.77a2.688,2.688,0,0,1,5.363-.258L43,27.77v7.167a8.063,8.063,0,0,1-7.683,8.053l-.379.01ZM8.062,43A8.064,8.064,0,0,1,.008,35.317L0,34.938V27.77a2.688,2.688,0,0,1,5.363-.258l.011.258v7.167A2.688,2.688,0,0,0,7.8,37.613l.26.011h7.166a2.688,2.688,0,0,1,.26,5.363l-.26.013ZM37.637,15.488l-.013-.26V8.062A2.688,2.688,0,0,0,35.2,5.387l-.258-.013H27.77A2.687,2.687,0,0,1,27.512.013L27.77,0h7.167A8.062,8.062,0,0,1,42.99,7.683l.01.379v7.166a2.688,2.688,0,0,1-5.363.26Zm-37.624,0L0,15.228V8.062A8.062,8.062,0,0,1,7.683.008L8.062,0h7.166a2.688,2.688,0,0,1,.26,5.363l-.26.011H8.062A2.688,2.688,0,0,0,5.387,7.8l-.013.26v7.166a2.687,2.687,0,0,1-5.361.26Z" transform="translate(0 0)" fill="#044468"/>
        </g>
        <g id="Minimize" transform="translate(-562 -3902.713)">
          <path id="Path-2" data-name="Path" d="M25.1,40.572l-.011-.26V33.146a8.062,8.062,0,0,1,7.682-8.054l.381-.008h7.166a2.687,2.687,0,0,1,.26,5.361l-.26.013H33.146a2.686,2.686,0,0,0-2.675,2.428l-.013.26v7.166a2.688,2.688,0,0,1-5.363.26Zm-12.542,0-.011-.26V33.146a2.686,2.686,0,0,0-2.428-2.675l-.26-.013H2.688a2.688,2.688,0,0,1-.26-5.363l.26-.011H9.854a8.062,8.062,0,0,1,8.054,7.682l.008.381v7.166a2.688,2.688,0,0,1-5.363.26ZM33.146,17.916a8.062,8.062,0,0,1-8.054-7.683l-.008-.379V2.688a2.687,2.687,0,0,1,5.361-.26l.013.26V9.854a2.688,2.688,0,0,0,2.428,2.675l.26.013h7.166a2.687,2.687,0,0,1,.26,5.361l-.26.013Zm-30.458,0a2.688,2.688,0,0,1-.26-5.363l.26-.011H9.854a2.688,2.688,0,0,0,2.675-2.428l.013-.26V2.688a2.687,2.687,0,0,1,5.361-.26l.013.26V9.854a8.062,8.062,0,0,1-7.683,8.054l-.379.008Z" transform="translate(0 0)" fill="#044468"/>
        </g>
        <g id="Minus" transform="translate(-468 -3902.713)">
          <path id="Path-3" data-name="Path" d="M30.993,0a2.657,2.657,0,0,1,.256,5.3l-.256.012H2.657A2.657,2.657,0,0,1,2.4.012L2.657,0Z" transform="translate(4.428 18.596)" fill="#044468"/>
        </g>
        <g id="Plus" transform="translate(-381 -3902.713)">
          <path id="Path-4" data-name="Path" d="M16.825,0a2.657,2.657,0,0,1,2.644,2.4l.012.256V14.168H30.993a2.657,2.657,0,0,1,.256,5.3l-.256.012H19.481V30.993a2.657,2.657,0,0,1-5.3.256l-.012-.256V19.481H2.657a2.657,2.657,0,0,1-.256-5.3l.256-.012H14.168V2.657A2.657,2.657,0,0,1,16.825,0Z" transform="translate(4.428 4.428)" fill="#044468"/>
        </g>
        <g id="Fast_Forward" data-name="Fast Forward" transform="translate(-296 -3902.713)">
          <path id="Path-5" data-name="Path" d="M21.252,27.455V15.15a2.637,2.637,0,0,1-1.025,2L4.288,29.553a2.615,2.615,0,0,1-1.618.564h0A2.672,2.672,0,0,1,0,27.455V2.662A2.672,2.672,0,0,1,2.668,0,2.616,2.616,0,0,1,4.288.564l15.939,12.4a2.638,2.638,0,0,1,1.025,2.006V2.662A2.672,2.672,0,0,1,23.921,0a2.615,2.615,0,0,1,1.618.564l15.939,12.4a2.655,2.655,0,0,1,0,4.194l-15.939,12.4a2.615,2.615,0,0,1-1.618.564A2.672,2.672,0,0,1,21.252,27.455Zm5.312-5.434,8.955-6.962L26.564,8.094Zm-21.252,0,8.955-6.962L5.312,8.094Z" transform="translate(0 6.194)" fill="#044468"/>
        </g>
        <g id="Rewind" transform="translate(-641 -3981.713)">
          <path id="Path-6" data-name="Path" d="M38.215,29.553l-15.939-12.4a2.66,2.66,0,0,1,0-4.194L38.215.564A2.616,2.616,0,0,1,39.835,0,2.672,2.672,0,0,1,42.5,2.662V27.455a2.672,2.672,0,0,1-2.668,2.662A2.616,2.616,0,0,1,38.215,29.553ZM28.234,15.059l8.956,6.965V8.091ZM16.964,29.553,1.025,17.155a2.657,2.657,0,0,1,0-4.194L16.964.564A2.616,2.616,0,0,1,18.583,0a2.672,2.672,0,0,1,2.668,2.662V27.455a2.672,2.672,0,0,1-2.668,2.662A2.616,2.616,0,0,1,16.964,29.553ZM6.983,15.059l8.956,6.965V8.091Z" transform="translate(0 6.194)" fill="#044468"/>
        </g>
        <g id="Repeat" transform="translate(-296 -3585.713)">
          <path id="Path-7" data-name="Path" d="M8.064,41.909l-.2-.182L.69,34.55l-.116-.137-.129-.177-.089-.143-.064-.116a2.65,2.65,0,0,1-.242-1.72l.029-.137a2.7,2.7,0,0,1,.214-.567l.128-.222.061-.089.153-.2.145-.158L7.863,23.8A2.656,2.656,0,0,1,11.8,27.356l-.182.2L9.068,30.107H27.451a4.429,4.429,0,0,0,4.414-4.077l.014-.351a2.656,2.656,0,1,1,5.312,0,9.743,9.743,0,0,1-9.257,9.729l-.483.011H9.07l2.55,2.549a2.657,2.657,0,0,1-3.556,3.94ZM25.573,18.7a2.656,2.656,0,0,1-.183-3.554l.183-.2L28.12,12.4H9.741a4.426,4.426,0,0,0-4.414,4.077l-.014.351a2.656,2.656,0,0,1-5.312,0A9.74,9.74,0,0,1,9.258,7.1l.483-.013H28.122L25.573,4.535a2.656,2.656,0,0,1,3.339-4.1L29.127.6l.2.182,7.083,7.085a2.785,2.785,0,0,1,.206.23l.155.217.126.218a2.668,2.668,0,0,1,0,2.426l-.083.15-.105.161-.151.2-.147.159L29.33,18.7a2.656,2.656,0,0,1-3.757,0Z" transform="translate(2.656 0)" fill="#044468"/>
        </g>
        <g id="Next_Arrow" data-name="Next Arrow" transform="translate(-647 -3808.713)">
          <path id="Path-8" data-name="Path" d="M24.194,32.086l-.182-.2a2.656,2.656,0,0,1,.182-3.554l9.24-9.24H2.657L2.4,19.076a2.657,2.657,0,0,1,.257-5.3H33.434l-9.24-9.24-.182-.2A2.657,2.657,0,0,1,27.951.778L41.727,14.554l.182.2a2.658,2.658,0,0,1-.182,3.556L27.951,32.086l-.2.182a2.658,2.658,0,0,1-3.556-.182Z" transform="translate(0 4.821)" fill="#044468"/>
        </g>
        <g id="Up_Arrow" data-name="Up Arrow" transform="translate(-567 -3808.713)">
          <path id="Path-9" data-name="Path" d="M13.775,39.847V9.071l-9.24,9.24-.2.182A2.657,2.657,0,0,1,.778,14.554L14.554.778l.2-.182a2.658,2.658,0,0,1,3.556.182L32.086,14.554l.182.2a2.657,2.657,0,0,1-3.939,3.556l-9.24-9.24V39.847l-.013.257a2.657,2.657,0,0,1-5.3-.257Z" transform="translate(4.82 0)" fill="#044468"/>
        </g>
        <g id="Search" transform="translate(-468 -3808.713)">
          <path id="Shape" d="M38.412,42.214,30.079,33.88A18.813,18.813,0,1,1,18.813,0V5.374A13.438,13.438,0,1,0,32.25,18.813,13.438,13.438,0,0,0,18.813,5.374V0A18.814,18.814,0,0,1,33.88,30.079l8.334,8.333a2.689,2.689,0,0,1-3.8,3.8Z" transform="translate(0 0)" fill="#044468"/>
        </g>
        <g id="Direction" transform="translate(-216 -3808.713)">
          <path id="Path-10" data-name="Path" d="M22.5,43h0a2.66,2.66,0,0,1-2.616-2.035L16.308,26.69,2.037,23.122a2.688,2.688,0,0,1-.725-4.915l.227-.121L39.153.269a2.655,2.655,0,0,1,3.434,1.007,2.622,2.622,0,0,1,.145,2.57L24.914,41.463A2.623,2.623,0,0,1,22.5,43ZM34.654,8.344h0L10.623,19.73l8.555,2.138a2.683,2.683,0,0,1,1.876,1.7l.077.258,2.138,8.552L34.654,8.344Z" transform="translate(0 0)" fill="#044468"/>
        </g>
        <g id="Music" transform="translate(-551 -3979.713)">
          <path id="Path-11" data-name="Path" d="M0,35.183a7.775,7.775,0,0,1,7.711-7.819,7.582,7.582,0,0,1,2.393.386V7.819a2.683,2.683,0,0,1,1.86-2.562l.239-.064L35.78.061a2.665,2.665,0,0,1,3.208,2.386l.01.24V12.03q0,.068,0,.136V28.191c0,.051,0,.1,0,.152a7.712,7.712,0,1,1-7.712-7.819,7.584,7.584,0,0,1,2.393.385V15.423L15.423,19.4V35.183A7.774,7.774,0,0,1,7.711,43,7.772,7.772,0,0,1,0,35.183Zm5.318,0a2.394,2.394,0,1,0,2.393-2.445A2.421,2.421,0,0,0,5.318,35.183Zm23.577-6.84A2.394,2.394,0,1,0,31.288,25.9,2.422,2.422,0,0,0,28.895,28.343ZM15.423,9.989V13.9L33.681,9.924V6.016Z" transform="translate(2 0)" fill="#044468"/>
        </g>
        <g id="Mic" transform="translate(-211 -3592.713)">
          <path id="Combined_Shape" data-name="Combined Shape" d="M7.97,42.5a2.657,2.657,0,0,1-.257-5.3l.257-.013H12.4V34.3A15.056,15.056,0,0,1,.01,20.024L0,19.481V15.939a2.657,2.657,0,0,1,5.3-.257l.011.257v3.542a9.741,9.741,0,0,0,19.47.483l.013-.483V15.939a2.656,2.656,0,0,1,5.3-.257l.013.257v3.542A15.055,15.055,0,0,1,17.71,34.3v2.892h4.428a2.657,2.657,0,0,1,.255,5.3l-.255.013ZM9.38,25.013a8.258,8.258,0,0,1-2.3-5.754V8.191a8.264,8.264,0,0,1,2.3-5.754,7.821,7.821,0,0,1,11.345,0,8.257,8.257,0,0,1,2.3,5.754V19.259a8.251,8.251,0,0,1-2.3,5.754,7.821,7.821,0,0,1-11.345,0Zm3.832-18.9A3.019,3.019,0,0,0,12.4,8.191V19.259a3.019,3.019,0,0,0,.816,2.074,2.508,2.508,0,0,0,3.682,0,3.011,3.011,0,0,0,.816-2.074V8.191a3.011,3.011,0,0,0-.816-2.074,2.508,2.508,0,0,0-3.682,0Z" transform="translate(6.199)" fill="#044468"/>
        </g>
        <g id="Eye" transform="translate(-647 -3585.713)">
          <path id="Path-12" data-name="Path" d="M5.661,23.151A30.173,30.173,0,0,1,.326,16.326a2.645,2.645,0,0,1,0-2.545A30.173,30.173,0,0,1,5.661,6.956C10.381,2.34,15.626,0,21.253,0S32.126,2.34,36.846,6.956a30.173,30.173,0,0,1,5.335,6.825,2.645,2.645,0,0,1,0,2.545,30.173,30.173,0,0,1-5.335,6.825c-4.72,4.616-9.965,6.956-15.593,6.956S10.381,27.767,5.661,23.151Zm3.714-12.4a28.123,28.123,0,0,0-3.3,3.892l-.1.145-.18.261.282.408a28.123,28.123,0,0,0,3.3,3.892c3.695,3.61,7.691,5.442,11.878,5.442s8.185-1.831,11.879-5.442a28.123,28.123,0,0,0,3.3-3.892l.1-.145.179-.263-.279-.406a28.123,28.123,0,0,0-3.3-3.892c-3.695-3.61-7.692-5.442-11.879-5.442S13.07,7.144,9.375,10.754Zm6.565,4.3a5.313,5.313,0,1,1,5.312,5.314A5.312,5.312,0,0,1,15.94,15.053Z" transform="translate(-0.001 6.199)" fill="#044468"/>
        </g>
        <g id="User" transform="translate(-562 -3585.713)">
          <path id="Combined_Shape-2" data-name="Combined Shape" d="M24.806,40.1l-.011-.257V30.992a4.428,4.428,0,0,0-4.138-4.417l-.29-.01H9.74A4.427,4.427,0,0,0,5.322,30.7l-.01.29v8.856a2.656,2.656,0,0,1-5.3.257L0,39.848V30.992A9.741,9.741,0,0,1,9.348,21.26l.392-.008H20.367A9.742,9.742,0,0,1,30.1,30.6l.008.391v8.856a2.657,2.657,0,0,1-5.3.257ZM5.312,9.74a9.74,9.74,0,1,1,9.74,9.74A9.752,9.752,0,0,1,5.312,9.74Zm5.312,0a4.428,4.428,0,1,0,4.428-4.428A4.433,4.433,0,0,0,10.625,9.74Z" transform="translate(6.199)" fill="#044468"/>
        </g>
        <g id="Grid" transform="translate(-460.422 -3586.018)">
          <path id="Path-13" data-name="Path" d="M29.221,42.5a6.206,6.206,0,0,1-6.2-6.2V29.221a6.207,6.207,0,0,1,6.2-6.2H36.3a6.206,6.206,0,0,1,6.2,6.2V36.3a6.2,6.2,0,0,1-6.2,6.2Zm-.886-13.282V36.3a.887.887,0,0,0,.886.886H36.3a.886.886,0,0,0,.886-.886V29.221a.887.887,0,0,0-.886-.886H29.221A.888.888,0,0,0,28.335,29.221ZM6.2,42.5A6.206,6.206,0,0,1,0,36.3V29.221a6.207,6.207,0,0,1,6.2-6.2h7.083a6.207,6.207,0,0,1,6.2,6.2V36.3a6.206,6.206,0,0,1-6.2,6.2ZM5.312,29.221V36.3a.886.886,0,0,0,.886.886h7.083a.886.886,0,0,0,.886-.886V29.221a.887.887,0,0,0-.886-.886H6.2A.887.887,0,0,0,5.312,29.221Zm23.909-9.74a6.207,6.207,0,0,1-6.2-6.2V6.2a6.207,6.207,0,0,1,6.2-6.2H36.3a6.206,6.206,0,0,1,6.2,6.2v7.083a6.206,6.206,0,0,1-6.2,6.2ZM28.335,6.2v7.083a.887.887,0,0,0,.886.886H36.3a.886.886,0,0,0,.886-.886V6.2a.886.886,0,0,0-.886-.886H29.221A.887.887,0,0,0,28.335,6.2ZM6.2,19.481a6.207,6.207,0,0,1-6.2-6.2V6.2A6.207,6.207,0,0,1,6.2,0h7.083a6.207,6.207,0,0,1,6.2,6.2v7.083a6.207,6.207,0,0,1-6.2,6.2ZM5.312,6.2v7.083a.886.886,0,0,0,.886.886h7.083a.886.886,0,0,0,.886-.886V6.2a.886.886,0,0,0-.886-.886H6.2A.886.886,0,0,0,5.312,6.2Z" fill="#044468"/>
        </g>
        <g id="Google" transform="translate(-460.422 -3699.362)">
          <path id="Path-14" data-name="Path" d="M20.827,42.5A19.706,19.706,0,0,0,34.6,37.361C38.551,33.621,40.8,28.18,40.8,21.72a18.715,18.715,0,0,0-.425-4.335H20.827v7.863H32.3a10.487,10.487,0,0,1-4.25,6.886,12.062,12.062,0,0,1-7.226,2.125,12.555,12.555,0,0,1-11.859-8.8,13.358,13.358,0,0,1,0-8.416A12.54,12.54,0,0,1,20.827,8.2a11.321,11.321,0,0,1,8.033,3.188l5.866-5.866A19.588,19.588,0,0,0,20.827,0,20.8,20.8,0,0,0,2.21,11.689a21.7,21.7,0,0,0,0,19.084A20.714,20.714,0,0,0,20.827,42.5Z" fill="#044468"/>
        </g>
        <g id="Facebook" transform="translate(-381 -3699.713)">
          <path id="Path-15" data-name="Path" d="M13.176,42.5V21.252h5.866l.808-7.353H13.176l.043-3.655c0-1.913.17-2.933,2.89-2.933h3.7V0H13.941C6.886,0,4.378,3.528,4.378,9.521V13.9H0v7.353H4.378V42.5Z" transform="translate(10.626)" fill="#044468"/>
        </g>
        <g id="Twitter" transform="translate(-296 -3702.713)">
          <path id="Path-16" data-name="Path" d="M20.657,9.361l.085,1.488-1.53-.17A25.039,25.039,0,0,1,4.59,3.495L2.55,1.455,2.04,2.942a8.878,8.878,0,0,0,1.913,9.181c1.19,1.318.935,1.488-1.19.723a3.522,3.522,0,0,0-1.445-.34c-.213.213.51,3.06,1.105,4.165a10,10,0,0,0,4.208,3.953l1.53.723-1.785.043c-1.743,0-1.785,0-1.615.68.6,2,3.06,4.123,5.738,5.058l1.913.68-1.658.978a16.941,16.941,0,0,1-8.246,2.3A9.923,9.923,0,0,0,0,31.335c0,.3,3.74,2.04,5.951,2.72A25.864,25.864,0,0,0,26.1,31.76,26.968,26.968,0,0,0,36.3,19.732a31.332,31.332,0,0,0,2.083-9.308c0-1.4.085-1.615,1.828-3.315a17.579,17.579,0,0,0,2.125-2.38c.34-.6.3-.6-1.275-.085-2.593.935-2.975.808-1.7-.553A9.233,9.233,0,0,0,41.484.775c0-.128-.468.043-1.02.34a16.948,16.948,0,0,1-2.678,1.02l-1.658.553L34.6,1.667A11.846,11.846,0,0,0,32.006.307,9.928,9.928,0,0,0,26.65.435,8.776,8.776,0,0,0,20.657,9.361Z" transform="translate(0 5.133)" fill="#044468"/>
        </g>
        <g id="Instagram" transform="translate(-216 -3700.713)">
          <path id="Subtraction_3" data-name="Subtraction 3" d="M21.5,43c-5.452,0-6.442-.038-8.416-.112l-.442-.017a16.785,16.785,0,0,1-5.2-.99,11.064,11.064,0,0,1-6.32-6.321,17.074,17.074,0,0,1-.989-5.2l-.016-.425C.038,27.963,0,26.974,0,21.5s.038-6.462.113-8.432l.016-.425A15.812,15.812,0,0,1,1.118,7.4,10.175,10.175,0,0,1,3.612,3.612,10.681,10.681,0,0,1,7.438,1.119a15.662,15.662,0,0,1,5.2-.99C14.92,0,15.669,0,21.5,0s6.581,0,8.859.129a16.028,16.028,0,0,1,5.245.99,10.9,10.9,0,0,1,3.785,2.493A10.182,10.182,0,0,1,41.881,7.4a15.838,15.838,0,0,1,.99,5.246l.017.425c.075,1.97.113,2.96.113,8.432s-.038,6.463-.113,8.434l-.017.425a15.725,15.725,0,0,1-.99,5.2,10.709,10.709,0,0,1-2.493,3.828A10.9,10.9,0,0,1,35.6,41.881a17.193,17.193,0,0,1-5.245.99l-.44.017C27.943,42.962,26.953,43,21.5,43ZM19.564,3.87c-4.044,0-4.773,0-6.75.129a11.629,11.629,0,0,0-4,.73A6.726,6.726,0,0,0,6.364,6.321,6.629,6.629,0,0,0,4.729,8.816a11.263,11.263,0,0,0-.73,4l-.017.455c-.075,1.914-.112,2.875-.112,8.229,0,5.3.037,6.271.111,8.2L4,30.186a11.733,11.733,0,0,0,.73,3.956,6.48,6.48,0,0,0,1.635,2.494,6.557,6.557,0,0,0,2.451,1.592,12.562,12.562,0,0,0,4,.774l.471.018c1.938.074,2.91.111,8.213.111s6.271-.037,8.18-.11L30.186,39a12.43,12.43,0,0,0,4-.774,6.755,6.755,0,0,0,2.451-1.592,6.143,6.143,0,0,0,1.633-2.494A11.694,11.694,0,0,0,39,30.186l.019-.486c.073-1.93.11-2.9.11-8.2,0-5.356-.037-6.317-.111-8.23L39,12.814a11.219,11.219,0,0,0-.732-4,6.78,6.78,0,0,0-1.633-2.495A6.757,6.757,0,0,0,34.185,4.73a11.652,11.652,0,0,0-4-.73C27.907,3.87,27.3,3.87,21.5,3.87Z" transform="translate(0 0)" fill="#044468" stroke="rgba(0,0,0,0)" stroke-miterlimit="10" stroke-width="1"/>
          <path id="Path-17" data-name="Path" d="M2.55,0A2.55,2.55,0,1,1,0,2.55,2.558,2.558,0,0,1,2.55,0Z" transform="translate(30.05 7.354)" fill="#044468"/>
          <path id="Subtraction_4" data-name="Subtraction 4" d="M10.923,21.848A10.924,10.924,0,1,1,21.848,10.925,10.935,10.935,0,0,1,10.923,21.848Zm0-18.022a7.077,7.077,0,1,0,7.1,7.1A7.107,7.107,0,0,0,10.923,3.826Z" transform="translate(10.329 10.328)" fill="#044468" stroke="rgba(0,0,0,0)" stroke-miterlimit="10" stroke-width="1"/>
        </g>
        <g id="TV" transform="translate(-381 -3585.713)">
          <path id="Path-18" data-name="Path" d="M9.854,43A9.865,9.865,0,0,1,0,33.146V20.6a9.864,9.864,0,0,1,9.854-9.854H16.8L10.641,4.588A2.688,2.688,0,0,1,14.238.6l.2.184,7.321,7.321a.9.9,0,0,0,1.143.1l.124-.1L30.348.787a2.688,2.688,0,0,1,3.986,3.6l-.184.2-6.163,6.163h5.158A9.864,9.864,0,0,1,43,20.6V33.146A9.865,9.865,0,0,1,33.146,43ZM5.374,20.6V33.146a4.485,4.485,0,0,0,4.479,4.479H33.146a4.485,4.485,0,0,0,4.478-4.479V20.6a4.484,4.484,0,0,0-4.478-4.479H9.854A4.484,4.484,0,0,0,5.374,20.6Z" transform="translate(0 0)" fill="#044468"/>
        </g>
        <g id="Check" transform="translate(-646.377 -3699.362)">
          <path id="Path-19" data-name="Path" d="M36.2.778a2.657,2.657,0,0,1,3.939,3.555l-.182.2L16.932,27.558a2.657,2.657,0,0,1-3.555.182l-.2-.182-12.4-12.4a2.657,2.657,0,0,1,3.555-3.939l.2.182L15.054,21.923Z" transform="translate(0.886 6.551)" fill="#044468"/>
        </g>
        <g id="Image" transform="translate(-381 -3808.713)">
          <rect id="BG" width="43" height="43" transform="translate(0 0)" fill="#044468" opacity="0"/>
          <g id="Image-2" data-name="Image" transform="translate(0 2.657)">
            <path id="Path-20" data-name="Path" d="M39.854,23.908H2.662a2.656,2.656,0,0,1-2.209-4.13L9.75,5.832a2.657,2.657,0,0,1,4.064-.43L18.4,9.869,25.862.951a2.658,2.658,0,0,1,4.273.268l11.954,18.6a2.657,2.657,0,0,1-2.235,4.093ZM12.4,11.439h0L7.627,18.6H34.987L27.618,7.131,20.64,15.478a2.656,2.656,0,0,1-3.891.2L12.4,11.439Z" transform="translate(0 13.283)" fill="#044468"/>
            <path id="Path-21" data-name="Path" d="M7.083,14.168a7.084,7.084,0,1,1,7.085-7.085A7.092,7.092,0,0,1,7.083,14.168Zm0-8.856A1.772,1.772,0,1,0,8.856,7.083,1.773,1.773,0,0,0,7.083,5.312Z" transform="translate(6.205 0)" fill="#044468"/>
          </g>
        </g>
        <g id="Map" transform="translate(-296 -3808.713)">
          <rect id="BG-2" data-name="BG" width="43" height="43" transform="translate(0 0)" fill="#044468" opacity="0"/>
          <g id="Group_11" data-name="Group 11" transform="translate(4.428 0)">
            <path id="Subtraction_1" data-name="Subtraction 1" d="M16.825,42.5a2.648,2.648,0,0,1-2.027-.94L13.344,39.87l-2.359-2.718L10.857,37l-.024-.029c-.126-.146-.251-.29-.374-.434L9.454,35.356l-.947-1.135-.889-1.089-.833-1.045-.778-1.006-.724-.969-.671-.937-.62-.906C1.156,24.014,0,20.584,0,16.432A16.067,16.067,0,0,1,5.035,4.712a17.1,17.1,0,0,1,23.578,0,16.067,16.067,0,0,1,5.036,11.716c0,5.524-2.306,10.365-8.508,17.861l-1.05,1.25q-.2.236-.4.473l-.146.171-4.335,4.966-.367.427A2.651,2.651,0,0,1,16.825,42.5Zm0-37.19A11.332,11.332,0,0,0,5.314,16.432c0,2.91.887,5.456,3.062,8.786l.532.794q.064.09.127.182l.031.044.127.182.608.843.66.879.711.916.767.96.821,1,.876,1.052,1.427,1.672,1.774,2.043,1.211-1.381L19.5,32.741l1.009-1.187.942-1.138c4.958-6.081,6.889-10,6.889-13.983A11.332,11.332,0,0,0,16.825,5.314Z" fill="#044468" stroke="rgba(0,0,0,0)" stroke-miterlimit="10" stroke-width="1"/>
            <path id="Subtraction_2" data-name="Subtraction 2" d="M7.083,14.168a7.084,7.084,0,1,1,7.083-7.085A7.092,7.092,0,0,1,7.083,14.168Zm0-8.855A1.772,1.772,0,1,0,8.854,7.083,1.773,1.773,0,0,0,7.083,5.313Z" transform="translate(9.742 9.741)" fill="#044468" stroke="rgba(0,0,0,0)" stroke-miterlimit="10" stroke-width="1"/>
          </g>
        </g>
        <g id="Cross" transform="translate(-564.162 -3699.362)">
          <rect id="BG-3" data-name="BG" width="42.504" height="42.504" fill="#044468" opacity="0"/>
          <path id="Path-22" data-name="Path" d="M.778,25.825A2.658,2.658,0,0,1,.6,22.269l.182-.2L9.545,13.3.778,4.535A2.657,2.657,0,0,1,4.334.6l.2.182L13.3,9.545,22.068.778a2.657,2.657,0,0,1,3.939,3.556l-.182.2L17.058,13.3l8.766,8.766a2.657,2.657,0,0,1-3.556,3.939l-.2-.182L13.3,17.058,4.535,25.825a2.656,2.656,0,0,1-3.757,0Z" transform="translate(7.95 7.951)" fill="#044468"/>
        </g>
        <g id="Play" transform="translate(-216 -3902.713)">
          <rect id="BG-4" data-name="BG" width="43" height="43" transform="translate(0 0)" fill="#044468" opacity="0"/>
          <path id="Path-23" data-name="Path" d="M2.663,37.2A2.665,2.665,0,0,1,0,34.539V2.661A2.652,2.652,0,0,1,4.093.426L28.886,16.365a2.656,2.656,0,0,1,0,4.469L4.093,36.773A2.643,2.643,0,0,1,2.663,37.2ZM5.312,7.527V29.673L22.538,18.6Z" transform="translate(7.97 2.652)" fill="#044468"/>
        </g>
        <g id="Chat" transform="translate(-634 -4292.713)">
          <path id="Path-24" data-name="Path" d="M2.7,43A2.7,2.7,0,0,1,0,40.308V9.843A9.86,9.86,0,0,1,9.854,0H33.146A9.865,9.865,0,0,1,43,9.853V25.081a9.865,9.865,0,0,1-9.854,9.853H15.1a4.5,4.5,0,0,0-2.836,1.013L4.389,42.388A2.642,2.642,0,0,1,2.7,43ZM9.854,5.374A4.479,4.479,0,0,0,5.374,9.843V34.636l3.486-2.849a9.906,9.906,0,0,1,5.753-2.215l.485-.013H33.146a4.483,4.483,0,0,0,4.478-4.477V9.853a4.484,4.484,0,0,0-4.478-4.479Z" transform="translate(0 0)" fill="#044468"/>
        </g>
        <g id="Elipse" transform="translate(-549 -4292.713)">
          <path id="Oval" d="M21.5,43A21.5,21.5,0,0,1,6.3,6.3,21.5,21.5,0,1,1,36.7,36.7,21.36,21.36,0,0,1,21.5,43Zm0-37.626A16.125,16.125,0,1,0,37.624,21.5,16.143,16.143,0,0,0,21.5,5.374Z" transform="translate(0 0)" fill="#044468"/>
        </g>
        <g id="Square" transform="translate(-470 -4292.713)">
          <path id="Rectangle" d="M33.146,43H9.854A9.865,9.865,0,0,1,0,33.146V9.854A9.865,9.865,0,0,1,9.854,0H33.146A9.865,9.865,0,0,1,43,9.854V33.146A9.865,9.865,0,0,1,33.146,43ZM9.854,5.374A4.485,4.485,0,0,0,5.374,9.854V33.146a4.484,4.484,0,0,0,4.479,4.478H33.146a4.483,4.483,0,0,0,4.478-4.478V9.854a4.484,4.484,0,0,0-4.478-4.479Z" transform="translate(0 0)" fill="#044468"/>
        </g>
        <g id="Home" transform="translate(-231 -4292.713)">
          <path id="Path-25" data-name="Path" d="M38.521,43H30.458a4.485,4.485,0,0,1-4.479-4.48v-4.48a4.479,4.479,0,1,0-8.957,0v4.48A4.485,4.485,0,0,1,12.542,43H4.479A4.485,4.485,0,0,1,0,38.52V19.587a9.863,9.863,0,0,1,4.2-8.072L19.959.485a2.69,2.69,0,0,1,3.081,0L38.8,11.514A9.858,9.858,0,0,1,43,19.587V38.52A4.485,4.485,0,0,1,38.521,43ZM21.5,24.187a9.865,9.865,0,0,1,9.854,9.854v3.583h6.271V19.587a4.463,4.463,0,0,0-1.643-3.467l-.268-.2L21.5,5.966,7.285,15.918a4.485,4.485,0,0,0-1.911,3.668V37.624h6.271V34.041A9.854,9.854,0,0,1,21.1,24.2Z" transform="translate(0 0)" fill="#044468"/>
        </g>
        <g id="Back" transform="translate(-634 -4198.713)">
          <path id="Path-26" data-name="Path" d="M14.553.778a2.657,2.657,0,0,1,3.939,3.555l-.182.2-11.9,11.9,11.9,11.9a2.657,2.657,0,0,1,.182,3.555l-.182.2a2.657,2.657,0,0,1-3.555.182l-.2-.182L.778,18.31A2.657,2.657,0,0,1,.6,14.755l.182-.2Z" transform="translate(9.068 4.82)" fill="#044468"/>
        </g>
        <g id="Next" transform="translate(-549 -4198.713)">
          <path id="Path-27" data-name="Path" d="M4.535.778A2.657,2.657,0,0,0,.6,4.333l.182.2,11.9,11.9-11.9,11.9A2.657,2.657,0,0,0,.6,31.884l.182.2a2.657,2.657,0,0,0,3.555.182l.2-.182L18.31,18.31a2.657,2.657,0,0,0,.182-3.555l-.182-.2Z" transform="translate(14.345 4.82)" fill="#044468"/>
        </g>
        <g id="Up" transform="translate(-470 -4198.713)">
          <path id="Path-28" data-name="Path" d="M4.535.778A2.657,2.657,0,0,0,.6,4.333l.182.2,11.9,11.9-11.9,11.9A2.657,2.657,0,0,0,.6,31.884l.182.2a2.657,2.657,0,0,0,3.555.182l.2-.182L18.31,18.31a2.657,2.657,0,0,0,.182-3.555l-.182-.2Z" transform="translate(4.817 28.156) rotate(-90)" fill="#044468"/>
        </g>
        <g id="Down" transform="translate(-390 -4198.713)">
          <path id="Path-29" data-name="Path" d="M14.553,32.085a2.657,2.657,0,0,0,3.939-3.555l-.182-.2-11.9-11.9,11.9-11.9A2.657,2.657,0,0,0,18.493.98l-.182-.2A2.657,2.657,0,0,0,14.755.6l-.2.182L.778,14.553A2.657,2.657,0,0,0,.6,18.108l.182.2Z" transform="translate(4.817 33.433) rotate(-90)" fill="#044468"/>
        </g>
        <g id="Back_Arrow" data-name="Back Arrow" transform="translate(-310 -4198.713)">
          <path id="Path-30" data-name="Path" d="M14.755,32.267l-.2-.182L.778,18.311A2.658,2.658,0,0,1,.6,14.755l.182-.2L14.554.778a2.657,2.657,0,0,1,3.939,3.556l-.182.2L9.07,13.775H39.847a2.657,2.657,0,0,1,.257,5.3l-.257.013H9.07l9.241,9.24a2.656,2.656,0,0,1,.182,3.554l-.182.2a2.658,2.658,0,0,1-3.556.182Z" transform="translate(0 4.821)" fill="#044468"/>
        </g>
        <g id="Down_Arrow" data-name="Down Arrow" transform="translate(-231 -4198.713)">
          <path id="Path-31" data-name="Path" d="M14.755,41.909l-.2-.182L.778,27.951a2.657,2.657,0,0,1,3.556-3.939l.2.182,9.24,9.24V2.657a2.657,2.657,0,0,1,5.3-.257l.013.257V33.434l9.24-9.24a2.656,2.656,0,0,1,3.939,3.554l-.182.2L18.311,41.727a2.658,2.658,0,0,1-3.556.182Z" transform="translate(4.82)" fill="#044468"/>
        </g>
        <g id="Share" transform="translate(-634 -4089.713)">
          <path id="Path-32" data-name="Path" d="M34.535,0a2.657,2.657,0,0,1,.256,5.3l-.256.012H11.265a5.952,5.952,0,0,0-.327,11.9l.327.009h.246a2.657,2.657,0,0,1,.256,5.3l-.256.012h-.246a11.265,11.265,0,0,1-.4-22.523l.4-.007Z" transform="translate(0 14.661)" fill="#044468"/>
          <path id="Path-33" data-name="Path" d="M.778.778A2.657,2.657,0,0,1,4.333.6l.2.182,9.348,9.348a2.657,2.657,0,0,1,.182,3.555l-.182.2L4.535,23.23A2.657,2.657,0,0,1,.6,19.675l.182-.2L8.248,12,.778,4.535A2.657,2.657,0,0,1,.6.98Z" transform="translate(27.843 5.313)" fill="#044468"/>
        </g>
        <g id="Playlist" transform="translate(-471 -3975.713)">
          <path id="Path-34" data-name="Path" d="M29.234,28.591l-.013-.255V23.022H23.909a2.656,2.656,0,0,1-.257-5.3l.257-.013h5.312V12.4a2.657,2.657,0,0,1,5.3-.257l.013.257V17.71h5.312a2.657,2.657,0,0,1,.257,5.3l-.257.011H34.535v5.314a2.657,2.657,0,0,1-5.3.255ZM2.657,23.022a2.656,2.656,0,0,1-.257-5.3l.257-.013H15.939a2.657,2.657,0,0,1,.257,5.3l-.257.011Zm0-8.854a2.657,2.657,0,0,1-.257-5.3l.257-.011H23.909a2.656,2.656,0,0,1,.257,5.3l-.257.013Zm0-8.856A2.656,2.656,0,0,1,2.4.013L2.657,0H23.909a2.657,2.657,0,0,1,.257,5.3l-.257.011Z" transform="translate(0 2.657)" fill="#044468"/>
        </g>
        <g id="Shuffle" transform="translate(-390 -3975.713)">
          <path id="Path-35" data-name="Path" d="M32.7,37.191H22.138a2.656,2.656,0,0,1-.257-5.3l.257-.013H26.35l-6.091-6.09a2.657,2.657,0,0,1,3.556-3.94l.2.182,6.092,6.092V23.909a2.657,2.657,0,0,1,5.3-.257l.011.257V34.5a2.671,2.671,0,0,1-.021.37l0,.015c0,.015,0,.029-.006.044l-.006.04,0,.019-.009.048,0,.01-.01.05v0h0v0l-.011.049,0,.007v0l-.012.048,0,.009v.005l-.013.045,0,.01v0l0,.006-.013.043,0,.009v0l0,.009-.013.039,0,.009h0l0,.014-.012.034,0,.008h0l-.009.025-.009.023,0,.008-.015.037-.005.012v0l0,0-.02.046,0,.007v0l-.023.049v0a2.639,2.639,0,0,1-.275.453l-.01.013-.021.027,0,0-.016.02-.019.023,0,0-.018.021-.005.006-.014.016-.023.026-.006.007-.006.006-.006.007-.025.028,0,0-.041.044,0,0q-.081.083-.17.159l0,0-.046.039-.007.006-.045.036-.007.005-.046.035-.007.005-.05.036,0,0a2.642,2.642,0,0,1-1.26.463h-.013c-.081.007-.163.011-.244.011ZM.778,34.642A2.656,2.656,0,0,1,.6,31.088l.182-.2L26.351,5.313H22.138a2.656,2.656,0,0,1-.257-5.3L22.138,0H32.73a2.671,2.671,0,0,1,.37.021l.02,0L33.16.03,33.2.036l.016,0,.05.009.009,0,.051.01h.009l.051.012h.006l.052.013.01,0h0L33.5.1l.01,0h.007l.042.013.012,0,.01,0,.038.013.01,0,.016.006.032.011.01,0,.027.01.021.008.008,0,.043.018h0L33.8.211l.047.02.008,0,.05.023h0a2.64,2.64,0,0,1,.452.275l.013.01.031.024.022.018.024.019.03.025L34.5.645l.039.034.008.007a2.673,2.673,0,0,1,.268.281h0l.038.047,0,0,.034.044.006.008.031.042.006.009.03.042.005.008.03.045,0,0A2.641,2.641,0,0,1,35.409,2.4v.023q.01.116.01.234V13.282a2.656,2.656,0,0,1-5.3.257l-.013-.257V9.07L4.535,34.642a2.656,2.656,0,0,1-3.757,0Zm9.057-19.3-.2-.182L.778,6.306A2.657,2.657,0,0,1,4.334,2.367l.2.182L13.391,11.4a2.657,2.657,0,0,1-3.556,3.939Z" transform="translate(3.542 2.656)" fill="#044468"/>
        </g>
        <g id="Refresh" transform="translate(-310 -3975.713)">
          <path id="Path-36" data-name="Path" d="M17.178,38.267a18.825,18.825,0,0,1-7.54-4.21L9.16,33.6,5.374,30.08v4.491a2.688,2.688,0,0,1-5.361.257L0,34.571,0,23.846l.011-.169.045-.3.063-.239L.2,22.922l.082-.179a2.645,2.645,0,0,1,.271-.429l.174-.2A2.72,2.72,0,0,1,1,21.859L1.2,21.72l.169-.1.332-.158.235-.08.243-.057.1-.018.177-.021.234-.01H13.437a2.658,2.658,0,0,1,.26,5.306l-.26.013H9.468L12.9,29.784a13.539,13.539,0,0,0,18.431.538,13.291,13.291,0,0,0,3.741-5.5A2.7,2.7,0,0,1,38.5,23.2a2.653,2.653,0,0,1,1.637,3.4A18.615,18.615,0,0,1,34.9,34.3a18.974,18.974,0,0,1-17.726,3.969ZM29.562,17.726A2.658,2.658,0,0,1,29.3,12.42l.258-.013h3.967L30.1,9.217a13.538,13.538,0,0,0-18.431-.539,13.271,13.271,0,0,0-3.741,5.5A2.7,2.7,0,0,1,4.5,15.8a2.654,2.654,0,0,1-1.637-3.394A18.613,18.613,0,0,1,8.1,4.7a18.955,18.955,0,0,1,25.266.239l.477.456,3.784,3.519V4.428a2.689,2.689,0,0,1,5.363-.255L43,4.428V15.067l-.006.184-.032.268-.055.246-.061.19-.1.243-.029.061a2.73,2.73,0,0,1-.271.426l-.174.2-.14.137-.271.217-.266.163-.239.113-.289.1-.29.067-.164.022-.3.016Z" transform="translate(0 2)" fill="#044468"/>
        </g>
        <g id="Pencil" transform="translate(-231 -3975.713)">
          <path id="Path-37" data-name="Path" d="M2.716,43A2.726,2.726,0,0,1,.054,39.74L2.623,26.895A2.709,2.709,0,0,1,3.368,25.5L28.074.8a2.723,2.723,0,0,1,3.852,0L42.2,11.073a2.728,2.728,0,0,1,0,3.854L17.5,39.632a2.723,2.723,0,0,1-1.392.745L3.26,42.946A2.783,2.783,0,0,1,2.716,43ZM30,6.577h0L7.8,28.772,6.2,36.8l8.027-1.606L36.422,13,30,6.577Z" transform="translate(0 0)" fill="#044468"/>
        </g>
        <g id="Send" transform="translate(-469.77 -4089.362)">
          <path id="Path-38" data-name="Path" d="M2.652,38.976A2.673,2.673,0,0,1,.488,37.844,2.612,2.612,0,0,1,.149,35.45L5.634,19.488.149,3.527A2.612,2.612,0,0,1,.488,1.132,2.673,2.673,0,0,1,2.652,0a2.665,2.665,0,0,1,1.1.243L37.381,15.454a4.428,4.428,0,0,1,0,8.068L3.756,38.733A2.664,2.664,0,0,1,2.652,38.976ZM7.172,7.618h0l3.782,11.006a2.663,2.663,0,0,1,0,1.728l-3.782,11L33.406,19.488,7.172,7.618Z" transform="translate(0 0)" fill="#044468"/>
        </g>
        <g id="_3_Dot_-_Hor" data-name="3 Dot - Hor" transform="translate(-390 -4089.713)">
          <circle id="Oval-2" data-name="Oval" cx="3.5" cy="3.5" r="3.5" transform="translate(5 18)" fill="#044468"/>
          <circle id="Oval-3" data-name="Oval" cx="3.5" cy="3.5" r="3.5" transform="translate(18 18)" fill="#044468"/>
          <circle id="Oval-4" data-name="Oval" cx="3.5" cy="3.5" r="3.5" transform="translate(30 18)" fill="#044468"/>
        </g>
        <g id="_3_Dot_-_Ver" data-name="3 Dot - Ver" transform="translate(-310 -4089.713)">
          <circle id="Oval-5" data-name="Oval" cx="3.5" cy="3.5" r="3.5" transform="translate(25 5) rotate(90)" fill="#044468"/>
          <circle id="Oval-6" data-name="Oval" cx="3.5" cy="3.5" r="3.5" transform="translate(25 18) rotate(90)" fill="#044468"/>
          <circle id="Oval-7" data-name="Oval" cx="3.5" cy="3.5" r="3.5" transform="translate(25 30) rotate(90)" fill="#044468"/>
        </g>
        <g id="Bell" transform="translate(-549 -4089.713)">
          <path id="Path-39" data-name="Path" d="M34.353,32H2.649A2.6,2.6,0,0,1,.119,30.105a2.629,2.629,0,0,1,1.063-2.99l.079-.059a2.966,2.966,0,0,0,.312-.293l.26-.3A11.08,11.08,0,0,0,2.97,24.723c1.539-2.849,2.319-6.681,2.319-11.39l.013-.557a13.355,13.355,0,0,1,3.857-8.87,13.123,13.123,0,0,1,18.682,0,13.308,13.308,0,0,1,3.87,9.427c0,4.579.741,8.337,2.2,11.168a10.283,10.283,0,0,0,1.416,2.12l.026.029.1.11.209.211.138.126.257.2a2.642,2.642,0,0,1,.78,2.947A2.581,2.581,0,0,1,34.353,32ZM18.5,5.333A7.839,7.839,0,0,0,12.9,7.677a8.092,8.092,0,0,0-2.321,5.656A30.574,30.574,0,0,1,8.122,26.258l-.2.41H29.078l-.111-.226a29.645,29.645,0,0,1-2.532-12.262l-.008-.846A8.087,8.087,0,0,0,24.1,7.677,7.938,7.938,0,0,0,18.5,5.333Z" transform="translate(0 0)" fill="#044468"/>
          <path id="Path-40" data-name="Path" d="M11.32.88l.13-.113a2.7,2.7,0,0,1,3.771,0,2.6,2.6,0,0,1,0,3.712,8.415,8.415,0,0,1-3.3,1.913A12.681,12.681,0,0,1,8,7a12.681,12.681,0,0,1-3.921-.6,8.414,8.414,0,0,1-3.3-1.913,2.6,2.6,0,0,1,0-3.712A2.7,2.7,0,0,1,4.347.587l.2.18a3.241,3.241,0,0,0,1.216.649A7.29,7.29,0,0,0,8,1.75a7.29,7.29,0,0,0,2.234-.334A3.664,3.664,0,0,0,11.32.88Z" transform="translate(11 35)" fill="#044468"/>
        </g>
        <g id="Star" transform="translate(-310 -4292.713)">
          <rect id="BG-5" data-name="BG" width="43" height="43" transform="translate(0 0)" fill="#044468" opacity="0"/>
          <path id="Path-41" data-name="Path" d="M9.767,40.74h0a2.681,2.681,0,0,1-1.995-.905,2.593,2.593,0,0,1-.648-2.047l.035-.23L9.438,26.079.857,18.135A2.611,2.611,0,0,1,.1,15.474a2.637,2.637,0,0,1,2.011-1.888l.236-.038,11.6-1.38L18.845,1.544a2.657,2.657,0,0,1,4.826,0l4.893,10.623,11.6,1.38a2.608,2.608,0,0,1,2.174,1.706,2.637,2.637,0,0,1-.515,2.71l-.167.171-8.582,7.944,2.279,11.479a2.6,2.6,0,0,1-.54,2.193,2.7,2.7,0,0,1-2.064.988,2.606,2.606,0,0,1-1.093-.242l-.206-.1-10.2-5.716L11.064,40.394A2.629,2.629,0,0,1,9.767,40.74ZM21.258,28.978a2.636,2.636,0,0,1,1.052.218l.247.121,6.466,3.626-1.446-7.286a2.676,2.676,0,0,1,.609-2.268l.191-.2,5.45-5.048-7.367-.873a2.67,2.67,0,0,1-1.972-1.281l-.128-.244L21.257,9l-3.1,6.741a2.675,2.675,0,0,1-2.1,1.525l-7.367.873,5.45,5.048a2.668,2.668,0,0,1,.84,2.195l-.038.271-1.447,7.286,6.468-3.626A2.667,2.667,0,0,1,21.258,28.978Z" transform="translate(0 0.886)" fill="#044468"/>
        </g>
        <g id="_Heart" data-name=" Heart" transform="translate(-390.074 -4293.028)">
          <rect id="BG-6" data-name="BG" width="42" height="42" transform="translate(0.074 0.315)" fill="#044468" opacity="0"/>
          <path id="Path-42" data-name="Path" d="M21.338,38.962a2.649,2.649,0,0,1-.951-.176l-.17-.067-.045-.018-.5-.212-.6-.268-.333-.155-.728-.355-.8-.413a41.756,41.756,0,0,1-6.819-4.453C5.368,28.8,2.145,24.121.8,18.943l-.1-.3A17.577,17.577,0,0,1,.15,11.408,14.091,14.091,0,0,1,3.164,4.213L3.522,3.8A11.57,11.57,0,0,1,11.82,0h.422a12.436,12.436,0,0,1,8.774,3.766l.327.328.292-.29A13.126,13.126,0,0,1,29.964.011L30.434,0h.422a12.4,12.4,0,0,1,8.311,3.813,13.875,13.875,0,0,1,3.358,7.574,17.413,17.413,0,0,1-.676,7.64l-.143.533a26.467,26.467,0,0,1-8.824,12.8l-.59.485A41.737,41.737,0,0,1,25.475,37.3l-.807.413c-.128.064-.252.126-.375.185l-.687.325-.862.381-.456.183A2.649,2.649,0,0,1,21.338,38.962ZM11.82,5.312a5.733,5.733,0,0,0-1.793.368A6.463,6.463,0,0,0,7.44,7.389a8.756,8.756,0,0,0-2.034,5.789,14.12,14.12,0,0,0,.472,4.2l.056.186c1.04,4.07,3.66,7.821,7.786,11.149A36.491,36.491,0,0,0,19.67,32.6c.361.188.705.361,1.022.515l.646.3.486-.225.661-.325.521-.269a36.306,36.306,0,0,0,5.95-3.883c4.126-3.328,6.746-7.079,7.788-11.149l.12-.4a14.969,14.969,0,0,0,.406-3.982,8.772,8.772,0,0,0-1.941-5.693,7.241,7.241,0,0,0-4.472-2.172h-.422a8.047,8.047,0,0,0-5.815,3.075L23.351,9.858a2.655,2.655,0,0,1-4.025,0L17.716,8a7.432,7.432,0,0,0-5.473-2.684Z" transform="translate(0 1.771)" fill="#044468"/>
        </g>
        <g id="Menu" transform="translate(-231 -4089.713)">
          <rect id="BG-7" data-name="BG" width="43" height="43" transform="translate(0 0)" fill="#044468" opacity="0"/>
          <path id="Shape-2" data-name="Shape" d="M2.657,30.107a2.657,2.657,0,0,1-.257-5.3l.257-.011H30.992a2.656,2.656,0,0,1,.257,5.3l-.257.013Zm0-12.4a2.657,2.657,0,0,1-.257-5.3l.257-.011H30.992a2.656,2.656,0,0,1,.257,5.3l-.257.013Zm0-12.4A2.656,2.656,0,0,1,2.4.013L2.657,0H30.992a2.657,2.657,0,0,1,.257,5.3l-.257.011Z" transform="translate(4.428 6.199)" fill="#044468"/>
        </g>
      </g>
      <g id="Sidebar" transform="translate(-1231 -4668.5)">
        <rect id="Primitives_Sidebar" data-name="Primitives Sidebar" width="428" height="1040.597" fill="#044468"/>
        <text id="There_are_offcourse" data-name="There are offcourse" transform="translate(55 297.504)" fill="#fff" font-size="24" font-family="Tajawal-Medium, Tajawal" font-weight="500"><tspan x="0" y="24">Most of icons created on 24 x </tspan><tspan x="0" y="57">24 artboard with 3px stroke </tspan><tspan x="0" y="90">width</tspan></text>
        <text id="Primitive_defines_th" data-name="Primitive defines th" transform="translate(55 183.929)" fill="#fff" font-size="24" font-family="Tajawal-Medium, Tajawal" font-weight="500"><tspan x="0" y="24">Crafted some essential icons </tspan><tspan x="0" y="57">matching bloo themes as well.</tspan></text>
        <text id="Primitives" transform="translate(50.484 83.932)" fill="#fff" font-size="50" font-family="Tajawal-Medium, Tajawal" font-weight="500"><tspan x="0" y="0">Icons</tspan></text>
        <path id="Path_5" data-name="Path 5" d="M37.47.5h282.4" transform="translate(24.5 146.097)" fill="#fff" stroke="#fff" stroke-miterlimit="10" stroke-width="3"/>
      </g>
    </g>
  </g>
</svg>
